<?xml version="1.0" standalone="no"?>
<!DOCTYPE svg PUBLIC "-//W3C//DTD SVG 1.1//EN" "http://www.w3.org/Graphics/SVG/1.1/DTD/svg11.dtd" >
<svg xmlns="http://www.w3.org/2000/svg">
<metadata></metadata>
<defs>
<font id="carefreeregular" horiz-adv-x="966" >
<font-face units-per-em="2048" ascent="1638" descent="-410" />
<missing-glyph horiz-adv-x="344" />
<glyph horiz-adv-x="0" />
<glyph unicode="&#xd;" horiz-adv-x="344" />
<glyph unicode=" "  horiz-adv-x="344" />
<glyph unicode="&#x09;" horiz-adv-x="344" />
<glyph unicode="&#xa0;" horiz-adv-x="344" />
<glyph unicode="!" horiz-adv-x="575" d="M-45 0q0 45 34 111.5t68 68.5q56 4 60 -76q2 -68 -28 -115.5t-81 -47.5t-53 59zM104 313q-2 39 43 117l543 924q49 82 80 82q59 -1 59 -50q0 -43 -24 -83l-543 -924q-23 -41 -45 -82q-23 -33 -53 -33q-55 0 -60 49z" />
<glyph unicode="&#x22;" horiz-adv-x="641" d="M309 967q0 131 123 452q20 53 72 54q18 0 33.5 -18t11.5 -36q-37 -213 -111 -413q-29 -78 -80 -78q-49 0 -49 39zM694 973q0 131 123 452q20 53 72 54q18 0 34.5 -18t12.5 -36q-33 -190 -113 -413q-29 -78 -80 -78q-49 0 -49 39z" />
<glyph unicode="#" horiz-adv-x="1433" d="M227 422l37 67h285l270 504h-319q16 61 16 70h334l186 358h86l-188 -358h276l185 338h88l-187 -338h230q-2 -2 -27 -70h-235l-265 -504h332q-8 2 -37 -67h-348l-225 -432h-88l227 432h-272l-228 -420l-81 4l217 416h-269zM639 489h274l267 504h-277z" />
<glyph unicode="$" horiz-adv-x="952" d="M-53 221q4 123 151 209q27 10 52 10q51 0 51 -32q0 -23 -37 -46q-82 -41 -84 -118q0 -39 19.5 -72t47.5 -41l246 430q-102 117 -102 232q-2 147 139 254.5t324 107.5q29 41 57 82q23 33 41 33q41 0 43 -25q4 -31 -43 -90q182 -18 180 -149q-2 -100 -119 -191 q-133 -102 -354 -139l-51 -82q117 -139 117 -277q0 -137 -114 -228t-280 -91q-25 0 -51 2q-49 -98 -82 -98q-37 0 -37 22q0 14 37 92q-156 86 -151 205zM229 115q20 -6 62 -6q98 0 166 77q61 70 59 158q-2 90 -72 133zM408 793q-2 -63 51 -117q16 18 12 74q0 41 70 59 l149 248q-111 -20 -195.5 -99t-86.5 -165zM639 825q10 -2 25 -2q72 0 160.5 64t90.5 119q4 61 -110 67z" />
<glyph unicode="%" horiz-adv-x="1099" d="M55 31q0 27 27 67q80 172 410 545q240 264 477 528q37 47 75 93q35 39 56 39q59 -21 53 -64q-2 -41 -66 -115q-51 -59 -104 -118q-137 -137 -360 -383q-270 -299 -344 -410q-49 -78 -101 -156q-43 -57 -96 -57q-27 0 -27 31zM72 784q2 121 142 310.5t232 193.5 q33 2 33 -37q0 -6 -4 -30q84 -1 84 -103q2 -135 -108 -305q-119 -180 -238 -186q-70 -4 -109 43q-35 41 -32 114zM168 786q0 -59 45 -75q55 -18 151.5 129.5t98.5 251.5q0 80 -70 79q-33 10 -127 -137q-100 -154 -98 -248zM559 143q2 121 142.5 310.5t232.5 193.5 q33 2 33 -37q0 -10 -4 -30q84 -1 84 -103q2 -135 -109 -305q-119 -180 -238 -186q-70 -4 -108 43q-35 41 -33 114zM655 145q0 -59 45 -75q55 -20 151.5 128.5t98.5 252.5q0 80 -69 79q-33 10 -127 -137q-100 -154 -99 -248z" />
<glyph unicode="&#x26;" horiz-adv-x="1376" d="M51 324q0 152 103 282q115 150 338 236q-10 270 94 405q84 106 219 107q66 0 120 -54.5t54 -136.5q-2 -203 -340 -370l82 -447q90 117 117 248l-78 16q-53 14 -53 66q0 66 112 65h180q29 0 107 12.5t115 12.5q108 0 108 -90q0 -35 -57 -35q-14 0 -57.5 3t-69.5 3 q-109 0 -193 -37q-12 -90 -69.5 -206.5t-128.5 -190.5q74 -115 176 -115q20 0 67 10.5t66 10.5q59 0 61 -47q2 -39 -55 -72q-63 -37 -156 -37q-139 2 -258 135q-119 -119 -288 -121q-127 0 -221.5 102.5t-94.5 244.5zM215 338q0 -111 74 -170q57 -47 131 -47q110 0 186 92 l-98 528q-152 -72 -229 -194q-63 -100 -64 -209zM623 891q109 43 170 121q55 67 53 133q-2 76 -76 76q-68 0 -111 -109q-37 -96 -36 -221z" />
<glyph unicode="'" horiz-adv-x="327" d="M362 1063q-4 27 31 57q70 61 123 152q47 82 59.5 147.5t69.5 65.5q62 0 62 -84q0 -98 -112 -238.5t-185 -140.5q-47 0 -48 41z" />
<glyph unicode="(" horiz-adv-x="786" d="M129 -190q0 53 18 108q43 598 375 1083q184 270 510 549q33 29 60 29q34 4 34 -35q0 -31 -26 -59q-715 -649 -854 -1567q0 -182 -82 -182q-35 0 -35 74z" />
<glyph unicode=")" horiz-adv-x="786" d="M-172 -244q0 45 57 94q350 297 611 820q242 487 241 815q0 41 19.5 66.5t42.5 25.5q39 2 39 -59q0 -471 -256 -947q-180 -334 -467 -637q-98 -104 -138 -137q-82 -72 -124 -61q-25 0 -25 20z" />
<glyph unicode="*" horiz-adv-x="901" d="M377 1319q6 37 37 37q37 0 110 -47q41 -27 82 -56q6 8 17 119q8 80 67 80q43 0 43 -63q0 -72 -43 -168q6 -10 25 -11q25 0 101.5 27t101.5 27q34 0 34 -25q0 -55 -98 -90q-78 -29 -147 -29q12 -41 73 -104q55 -57 56 -80q2 -39 -43 -39t-96.5 61.5t-73.5 131.5 q-29 -8 -86.5 -99.5t-92.5 -83.5q-45 6 -45 45q2 47 56.5 115t103.5 88q-37 43 -129 94q-61 35 -53 70z" />
<glyph unicode="+" horiz-adv-x="1173" d="M227 483q0 33 49 41q16 2 93 2h295l86 344q27 106 73 107q20 0 27 -45q6 -43 -4 -82l-82 -324h309h84q35 -4 35 -37q0 -37 -55 -45q-18 -4 -105 -4h-291l-82 -336q-14 -59 -20 -71q-16 -37 -51 -37q-20 0 -29 39q-6 35 2 69l80 336h-276q-137 0 -138 43z" />
<glyph unicode="," horiz-adv-x="458" d="M-160 -274q-4 27 29 61q70 57 121 147q47 80 59 149t72 69q59 0 59 -86q0 -98 -110.5 -238.5t-184.5 -140.5q-45 0 -45 39z" />
<glyph unicode="-" horiz-adv-x="694" d="M84 414v114h541v-114h-541z" />
<glyph unicode="." horiz-adv-x="458" d="M55 -20q-2 45 34 113.5t71 68.5q53 0 53 -78q0 -49 -39 -106.5t-76 -57.5q-41 0 -43 60z" />
<glyph unicode="/" horiz-adv-x="706" d="M-188 -94q-4 33 41 78q135 233 469 659q399 512 432 561q68 96 114 152q90 109 138 108q29 0 49 -24q14 -20 14 -43q0 -18 -37 -60q-57 -68 -114 -133q-223 -262 -478 -598q-326 -426 -456 -657q-35 -61 -43 -72q-23 -33 -45 -35q-84 0 -84 64z" />
<glyph unicode="0" horiz-adv-x="671" d="M10 295q0 225 113 434q94 178 242 297q137 111 233 111q41 0 41 -80q113 -51 113 -221q0 -299 -197 -551q-188 -240 -381 -242q-164 0 -164 252zM141 291q0 -127 78 -127q127 0 275 244q139 231 139 395q0 72 -27 117q-29 53 -82 55q-100 2 -239 -232 q-145 -244 -144 -452z" />
<glyph unicode="1" horiz-adv-x="507" d="M37 115q0 29 78 198q129 281 329 611q-207 -121 -251 -123q-35 -2 -46 41q-8 39 99 88q135 63 147 76q137 109 211 110q51 2 51 -43q0 -25 -16 -51q-236 -397 -442 -809q-49 -98 -52 -102q-29 -47 -55 -48q-51 0 -53 52z" />
<glyph unicode="2" horiz-adv-x="753" d="M-86 102q2 43 53 95q203 203 672 544q82 59 82 142q0 92 -115 92q-66 0 -156 -75t-106 -75q-63 0 -63 35q0 59 120 137q133 86 275 86q82 0 131 -54t49 -122q-2 -104 -102 -196q-61 -55 -371 -285q-238 -176 -285 -260q176 55 312 57q133 2 133 -71q0 -55 -27 -56 q-6 0 -53 6.5t-92 6.5q-141 0 -305 -58q-49 -16 -74 -16q-80 2 -78 67z" />
<glyph unicode="3" horiz-adv-x="690" d="M-37 240q-2 123 103 122q45 0 45 -57q0 -76 6 -92q16 -45 90 -47q96 -2 194 131q94 125 95 221q0 47 -35 88q-25 33 -64 31q-18 0 -48 -8t-40 -8q-16 0 -29.5 19t-13.5 36q0 39 80 72q66 23 129 45q106 59 109 131q2 66 -76 65q-37 0 -118 -43t-107 -43q-39 0 -39 27 q0 47 104.5 105.5t206.5 60.5q68 2 116 -41t56 -115q0 -141 -219 -246q106 -49 106 -174q0 -168 -153.5 -324.5t-300.5 -156.5q-78 0 -133 51q-63 55 -64 150z" />
<glyph unicode="4" horiz-adv-x="753" d="M14 475q0 106 306.5 387t427.5 281q29 0 51 -16.5t22 -41.5q0 -37 -59 -122q-86 -131 -107 -170l-96 -183q47 10 84 11q43 2 63.5 -12.5t14.5 -47.5q-12 -55 -90 -65q-8 -2 -123 -2q-80 -135 -125 -265q-23 -76 -45 -149q-18 -47 -59 -47q-63 0 -64 65q0 63 59 197 q43 90 86 182q-74 0 -172 -23.5t-122 -23.5q-51 0 -52 45zM180 561q68 8 246 33q31 72 213 381q-66 -29 -193 -139q-139 -123 -266 -275z" />
<glyph unicode="5" horiz-adv-x="706" d="M-23 248q0 72 26 127t63 55q59 0 57 -57q0 -14 -6 -54t-6 -61q0 -96 94 -96q92 0 196.5 135t104.5 250q0 45 -28.5 81t-71.5 36q-45 0 -117 -41t-94 -41q-27 0 -47.5 20.5t-20.5 46.5q0 78 250 357q-25 20 -27 34q-2 59 381 76q105 5 105 -65q0 -45 -50 -45l-278 -31 q-45 -25 -229 -250q111 39 186 39q174 0 176 -176q2 -193 -147 -361q-158 -176 -355 -176q-82 0 -125 62q-37 53 -37 135z" />
<glyph unicode="6" horiz-adv-x="720" d="M-14 287q0 170 139 368q119 168 289 297q160 123 241 121q43 0 43 -35q0 -39 -43 -63q-256 -145 -393 -316q147 68 225 66q168 -4 168 -197q0 -197 -178 -358q-158 -141 -280 -141q-92 0 -151.5 73.5t-59.5 184.5zM98 322q-4 -160 131 -172q100 -10 207 131 q101 134 99 249q0 96 -91 97q-117 0 -280 -99q-61 -78 -66 -206z" />
<glyph unicode="7" horiz-adv-x="622" d="M-10 43q0 92 280 461q258 340 402 471q-256 -59 -408 -57q-100 2 -100 40q0 47 51 56q78 6 156 10q137 10 268 49q47 14 76 14q88 0 88 -63q4 -31 -33 -66q-182 -172 -358 -413.5t-265 -429.5q-23 -66 -59 -86q-23 -12 -72 -13q-27 0 -26 27z" />
<glyph unicode="8" horiz-adv-x="706" d="M-66 262q2 111 103 227q113 133 323 236q-98 61 -94 170q4 100 94 178q98 82 238 82q86 0 134 -42.5t48 -108.5q0 -78 -61 -154q-68 -86 -195 -139q121 -82 119 -217q-4 -156 -155.5 -300.5t-311.5 -144.5q-106 0 -175 61.5t-67 151.5zM90 270q2 -47 43 -77.5t94 -30.5 q106 0 199.5 105t89.5 222q-2 109 -90 170q-147 -82 -243.5 -193.5t-92.5 -195.5zM391 924q-2 -72 84 -131q168 84 168 184q0 37 -26.5 61.5t-63.5 24.5q-70 0 -116 -45t-46 -94z" />
<glyph unicode="9" horiz-adv-x="671" d="M88 686q0 174 170 336q158 150 299 152q98 2 150.5 -56.5t52.5 -154.5q-2 -287 -383 -732q-141 -166 -230 -165q-27 0 -30 22q-2 25 61 84q49 45 101 92q59 59 121.5 149.5t74.5 131.5q-90 -76 -203 -78q-80 0 -132 60.5t-52 158.5zM205 694q-2 -47 27.5 -77.5 t78.5 -30.5q111 0 248 108q72 125 70 256q-2 133 -105 123q-106 -10 -210.5 -140t-108.5 -239z" />
<glyph unicode=":" horiz-adv-x="458" d="M25 8q2 47 35.5 107.5t66.5 60.5q25 0 39 -20.5t14 -59.5q0 -51 -39 -106.5t-73 -50.5q-47 6 -43 69zM238 547q0 47 34.5 109.5t69.5 62.5q51 0 51 -78q0 -61 -33.5 -110.5t-78.5 -47.5q-43 0 -43 64z" />
<glyph unicode=";" horiz-adv-x="458" d="M-162 -272q2 27 31 59q70 57 121 147q47 80 59 148t72 68q59 0 59 -84q0 -98 -110.5 -238.5t-184.5 -140.5q-49 0 -47 41zM238 526q0 47 34.5 113t69.5 66q51 0 51 -76q0 -47 -35.5 -104.5t-74.5 -57.5q-45 0 -45 59z" />
<glyph unicode="&#x3c;" horiz-adv-x="1064" d="M246 494l4 14q14 47 88 82l688 315q53 25 84 25t31 -29q-23 -25 -72 -51l-727 -342l553 -416q18 -14 23 -45q6 -47 -33 -47q-12 0 -40 11.5t-34 23.5l-516 405q-49 20 -49 54z" />
<glyph unicode="=" horiz-adv-x="1282" d="M240 258q0 23 45 40t104 17h705q110 0 110 -45q0 -39 -127 -39h-706q-131 0 -131 27zM342 692q0 23 44 40.5t106 17.5h704q111 0 111 -45q0 -41 -127 -41h-707q-131 0 -131 28z" />
<glyph unicode="&#x3e;" horiz-adv-x="1064" d="M225 -8q23 23 72 49l727 344l-553 416q-20 14 -22 45q-4 47 32 47q14 0 41 -11.5t35 -25.5l514 -403q49 -21 49 -56l-4 -12q-14 -41 -88 -84l-688 -313q-55 -25 -84 -25q-31 0 -31 29z" />
<glyph unicode="?" horiz-adv-x="804" d="M154 4q2 45 35.5 107.5t66.5 64.5q57 4 57 -74q0 -66 -31.5 -115.5t-78.5 -47.5q-53 2 -49 65zM254 442q0 129 238 367q31 31 170 125t202 156q98 96 99 184q0 96 -111 96q-98 0 -197 -70q-49 -35 -147 -131q-70 -70 -98 -69q-41 0 -41 49q0 82 169 201.5t296 119.5 q102 0 165.5 -56t63.5 -146q0 -127 -137 -260q-31 -31 -275 -222q-166 -131 -207 -225q-74 -166 -149 -166q-41 0 -41 47z" />
<glyph unicode="@" horiz-adv-x="1792" d="M250 340q0 268 219 551q199 256 498 430t538 174q180 0 293 -104.5t113 -288.5q0 -84 -76 -285q-90 -244 -213 -399q-158 -203 -334 -203q-74 0 -74 90q0 70 31 174q27 84 51 170q-145 -162 -319 -272q-184 -121 -305 -121q-123 0 -123 127q0 137 131 334 q137 207 332 342q223 158 440 158h35q39 47 74 47q16 0 34 -74q0 6 -16 -41q-272 -756 -272 -797q0 -23 14 -39t29 -16q59 0 170.5 122t191.5 286q94 193 94 358q0 156 -77 254q-88 111 -250 110q-217 0 -498 -180q-266 -174 -455 -422q-199 -264 -198 -477 q0 -129 86 -205.5t213 -76.5q178 0 329 112q68 51 91 51q20 0 36.5 -19.5t16.5 -39.5q-18 -18 -94 -66q-244 -123 -414 -122q-158 0 -250 99t-92 259zM631 434q-4 -31 22.5 -54.5t69.5 -23.5q94 0 270 126t307 282q146 174 146 283q0 98 -86 98q-94 0 -266 -121t-303 -279 q-145 -176 -160 -311z" />
<glyph unicode="A" horiz-adv-x="983" d="M4 250l160 262q-121 -55 -160 -55q-37 -4 -37 37q0 51 127 104q100 39 201 78q193 293 422 549q242 270 323 272q60 0 60 -74q-6 -76 -72 -268q-92 -268 -110 -330q45 8 55 9q86 0 88 -48v-3q0 -31 -41 -52q-40 -21 -102 -21q-16 0 -33 1q-68 -260 -92 -467 q-10 -106 -21 -211q-8 -49 -51 -49q-70 0 -70 143v8q2 131 103 559l-410 -116q-119 -182 -219 -367q-86 -158 -102 -180q-35 -47 -89 -47q-30 0 -30 32q0 59 100 234zM459 725l327 84q16 80 88 270q62 164 62 207q-78 -45 -250 -256q-152 -184 -227 -305z" />
<glyph unicode="B" horiz-adv-x="983" d="M-70 37q2 68 86 276q80 197 291 564q199 344 268 426q-41 -6 -129 -48q-72 -36 -100 -36h-4q-37 8 -37 43t210 128t312 93q115 0 195 -60.5t80 -154.5q0 -123 -147.5 -247t-348.5 -179q127 -29 192.5 -115t65.5 -205q0 -172 -191.5 -353t-391.5 -181q-131 0 -232 63 q0 -104 -51 -104q-33 0 -51 30q-16 25 -17 60zM82 150q0 -23 52 -40.5t124 -17.5q182 0 338 170q145 158 145 318q0 88 -86 149q-76 53 -151 53q-16 0 -55 -4q-31 -2 -46 0q-18 2 -26 15q-63 -127 -129 -254q-84 -172 -166 -389zM459 924q131 0 321 114q207 123 207 236 q0 100 -137 100q-86 0 -160 -37q14 -8 15 -24q0 -27 -76 -131q-109 -147 -170 -258z" />
<glyph unicode="C" horiz-adv-x="917" d="M10 213q-2 172 154 481q127 252 350 496q254 274 416 274h2q61 0 105 -51t44 -124q0 -202 -243 -447q-37 -37 -76 -37h-4q-56 2 -56 54q0 41 52 81q125 94 192 201q58 92 58 162q0 71 -58 71h-2q-131 0 -375 -293q-201 -242 -290 -422q-127 -256 -129 -413v-5 q0 -177 137 -182h4q96 0 215 93q133 104 248 294q46 62 80 62h4q12 0 12 -16q0 -23 -12 -46q-125 -236 -299 -370q-158 -123 -299 -123q-102 0 -166 66.5t-64 193.5z" />
<glyph unicode="D" horiz-adv-x="1015" d="M-4 63q0 61 70 250q66 178 251 541q178 348 191 385q-53 -74 -107 -74q-45 4 -49 41q-2 29 137 129q158 117 289 117q145 0 246 -80q113 -89 113 -239q0 -209 -168 -493t-402 -478q-250 -213 -452 -213q-47 0 -83 33.5t-36 80.5zM131 106q0 -47 37 -47q59 0 176 72 q238 145 447 461q213 325 213 561q0 93 -52 143q-49 48 -126 47h-9q-84 -2 -178 -57q14 0 14 -15q0 -47 -260 -563q-262 -520 -262 -602z" />
<glyph unicode="E" horiz-adv-x="868" d="M-29 115q0 18 13 51q178 483 409 840q61 92 123 182q55 82 74 131q-12 0 -29.5 15.5t-17.5 33.5q0 58 129 84q264 55 516 55q113 0 113 -44q0 -4 -1 -9q-4 -70 -200 -70q-63 0 -211 -17t-182 -30q29 0 28 -16q0 -23 -84 -139q-119 -162 -192 -291q51 6 188 31 q100 18 174 18q86 0 86 -43q0 -72 -186 -72q-92 0 -189 -18q-70 -14 -139 -31q-66 -129 -131 -258q-100 -207 -131 -321q76 39 215 77.5t213 38.5q133 0 133 -57q0 -20 -2 -25q-14 -33 -72 -38q-72 -4 -143 -9q-109 -16 -213 -69q-115 -59 -217 -60q-74 0 -74 60z" />
<glyph unicode="F" horiz-adv-x="868" d="M-20 109q0 37 36 155q41 133 279 547q141 238 280 475q-45 0 -45 45q2 66 205 121q186 49 365 49q168 0 168 -55q0 -51 -33 -64q-16 -6 -81 -6h-36h-11q-169 0 -370 -57q-180 -231 -278 -428q301 49 362 49q53 0 53 -59q0 -55 -53 -56q-70 0 -221 -26q-113 -20 -223 -41 q-53 -88 -125 -242q-90 -199 -121 -319q-25 -100 -27 -103q-18 -43 -71 -43t-53 58z" />
<glyph unicode="G" horiz-adv-x="884" d="M25 360q0 143 112 355q86 158 207 307q375 463 592 463q176 0 176 -172q0 -166 -160 -359q-143 -172 -223 -174q-23 0 -45 15.5t-22 35.5q0 29 94 115q131 119 176 174q96 115 96 217q0 66 -55 66h-2q-137 0 -412 -313q-166 -190 -289 -402q-127 -217 -127 -328 q0 -53 31 -88.5t82 -35.5q139 2 367 225q63 61 104 61q31 0 31 -43t-37 -100q-203 -317 -311 -592q-20 -74 -39 -147q-27 -86 -76 -86q-70 0 -70 55q0 8 37 160q18 78 129 278q100 184 101 217q-163 -151 -277 -151h-2q-74 0 -131 68.5t-57 178.5z" />
<glyph unicode="H" horiz-adv-x="1015" d="M-33 51q10 109 90 297q90 211 90 213q-53 -33 -79 -35h-5q-30 0 -30 52q0 51 71 81q55 18 109 35q43 80 231 406q129 221 195 385q30 76 70 76h2q45 -2 45 -70q0 -78 -156 -356q-197 -354 -207 -377l445 116q123 197 292 510q44 109 109 109h2q37 -2 37 -57t-117 -260 q-100 -178 -178 -285q16 0 43 4t37 4q2 0 3 1q48 0 48 -58q0 -51 -65.5 -56.5t-130.5 -9.5q-123 -254 -170 -362q-102 -229 -125 -348q-14 -74 -58 -74q-25 0 -44 26.5t-21 67.5q0 14 8 45q47 170 262 610q-100 -18 -248 -65q-104 -33 -209 -66q-61 -131 -120 -262 q-74 -172 -95 -297q-14 -86 -77 -86h-3q-52 2 -52 67q0 9 1 19z" />
<glyph unicode="I" horiz-adv-x="491" d="M-8 96q0 8 8 54q16 211 541 1054q154 248 213 248q57 0 57 -45q0 -41 -57 -121q-160 -221 -320 -485q-193 -317 -270 -520q-14 -39 -45 -187q-12 -61 -70 -61q-57 0 -57 63z" />
<glyph unicode="J" horiz-adv-x="935" d="M-16 279q0 137 73 305q80 184 205 290q55 47 84 48q23 0 21 -29q-2 -57 -54 -117q-190 -225 -192 -450v-6q0 -170 108 -170q82 0 179 102q84 90 151 225q119 238 236 473q154 313 174 387q-55 0 -171 -37.5t-151 -37.5q-51 0 -57 41v6q0 67 203 123q195 53 372 53 q109 0 148 -8q63 -15 63 -58q0 -45 -63 -57q-41 -8 -199 -8q-164 -473 -352 -793q-299 -510 -598 -510q-90 0 -135 63.5t-45 164.5z" />
<glyph unicode="K" horiz-adv-x="1015" d="M-33 66q0 203 246 610q119 182 236 366q131 205 190 377q37 106 86 107h4q31 0 31 -60q0 -49 -72 -198q-63 -131 -129 -262q584 370 685 370h1q51 0 51 -42q0 -56 -65 -81q-141 -49 -234 -96q-147 -78 -358 -233q-29 -94 -55 -279q-29 -201 -29 -330q0 -133 35 -133 q53 0 168.5 145.5t130.5 145.5q20 0 20 -35q0 -63 -114 -209q-130 -163 -239 -163h-1q-61 0 -96 65q-31 57 -31 172q0 117 35 322q31 166 61 333q-123 -215 -245 -430q-197 -358 -197 -430q0 -52 -22 -82q-20 -28 -45 -28h-3q-45 4 -45 78z" />
<glyph unicode="L" horiz-adv-x="671" d="M-90 98q0 87 139 363q82 162 289 463q180 266 334 460q33 43 71 43q39 0 39 -41v-4q-2 -25 -12 -45q-59 -113 -240 -350q-188 -250 -251 -360q-96 -170 -132 -242q-72 -139 -81 -203q104 29 206 56q109 30 177 30h4q86 0 86 -56v-5q-4 -57 -80 -57q-129 0 -289 -58.5 t-203 -58.5q-57 0 -57 65z" />
<glyph unicode="M" horiz-adv-x="1245" d="M-94 -39q0 33 35 105q31 57 59 116q238 512 541 908q150 197 204 256q103 116 159 116h1q55 0 58 -53q2 -16 -11 -55q-23 -70 -127 -273q-121 -238 -166 -346q-84 -197 -84 -305q154 223 441 643q293 434 416 436q45 0 45 -57q0 -80 -111 -281q-76 -131 -152 -264 q-131 -281 -172 -375q-113 -268 -124 -382q0 -51 4 -72q0 -113 -50 -113q-10 0 -20 2q-68 8 -68 115q0 178 117 430q154 330 395 758q-174 -174 -657 -908q-63 -96 -126 -96h-5q-64 4 -64 72v8q16 270 162 561q57 106 148 297q-109 -86 -355 -518q-190 -334 -317 -604 q-57 -123 -66 -133q-20 -31 -65 -31t-45 43z" />
<glyph unicode="N" horiz-adv-x="1099" d="M-37 18q-2 80 152 396q109 223 303 534.5t303 435.5q55 61 96 66q20 2 32.5 -11.5t10.5 -35.5q-2 -20 -8 -33q-84 -178 -143 -530q-55 -315 -56 -529q0 -37 2 -63q66 141 197 428q190 416 379 725q70 115 125 115h3q30 0 30 -43q0 -39 -166 -322q-221 -377 -254 -440 q-63 -123 -135 -312q-80 -215 -113 -284q-57 -121 -133 -123h-2q-61 0 -62 123q0 295 68 657q41 201 80 399q-393 -616 -525 -958q-59 -154 -67 -172q-37 -74 -80 -74q-37 6 -37 51z" />
<glyph unicode="O" horiz-adv-x="983" d="M14 244q2 236 236 583q211 315 457 510q-45 0 -128 -42t-106 -42q-35 0 -35 37q-2 57 123 110.5t262 55.5h7q145 0 223 -78q80 -80 80 -225q0 -213 -177 -502q-162 -264 -385 -465q-228 -202 -371 -202h-1q-186 0 -185 260zM154 246v-5q0 -126 92 -126q82 0 266 182 q193 188 332 416q162 266 162 454q0 180 -162 181q-27 0 -74 -11q23 -4 18 -22q-2 -33 -83 -123q-74 -78 -146 -154q-174 -193 -291 -426q-113 -223 -114 -366z" />
<glyph unicode="P" horiz-adv-x="968" d="M27 51q0 23 6 47q31 125 229 529q-37 37 -37 84q0 43 47 43q18 0 56 -13q74 141 196 414q-92 -41 -110 -41q-16 0 -31.5 17.5t-15.5 37.5q4 72 223 168q12 104 88 107q20 0 33.5 -12.5t11.5 -36.5q0 -2 -2 -4v-7q123 55 225 56q113 0 182.5 -63.5t69.5 -172.5 q0 -252 -240 -444q-223 -180 -475 -180h-6q-66 0 -117 14q-57 -125 -112 -252q-72 -158 -101 -276q-23 -88 -73 -89q-47 0 -47 74zM426 711q47 -6 84 -6q150 2 301 100q127 82 219 205q84 112 84 178q-12 131 -174 131q-104 0 -250 -49q-98 -221 -264 -559z" />
<glyph unicode="Q" horiz-adv-x="983" d="M16 248q8 229 238 569q201 295 453 520q-68 -31 -136.5 -60.5t-95.5 -29.5q-33 0 -33 39q0 57 146.5 112.5t277.5 55.5q267 0 267 -285q0 -223 -197 -542q-174 -283 -395 -477q29 -158 102.5 -270.5t151.5 -117.5h3q29 0 78 34q52 36 74 36q18 0 30.5 -9t10.5 -26 q0 -49 -84 -98t-149 -49q-115 0 -202 118.5t-112 297.5q-154 -98 -254 -99q-175 0 -175 253q0 14 1 28zM147 297q0 -186 97 -188h3q63 0 163 88q-59 161 -135 161h-1q-43 0 -127 -61zM197 430q86 31 139 31q68 0 110 -53q27 -35 62 -127q98 49 344 430q152 235 152 444 q0 199 -203 201h-15q-12 -2 -16 -2q23 -27 18 -49q0 -29 -51 -74q-74 -63 -98 -94q-201 -252 -264 -346q-135 -199 -178 -361z" />
<glyph unicode="R" horiz-adv-x="968" d="M-18 51q0 53 84 236.5t196 371.5q-12 74 -12 89q0 61 94 61q193 319 231 412q-86 -43 -88 -43q-8 0 -18 14t-10 29q0 37 41 71q27 23 139 92q0 37 23.5 60.5t50.5 23.5q41 0 41 -49q113 41 207 41q121 0 186 -94q51 -74 51 -166q-2 -209 -215 -370.5t-483 -161.5 q-53 0 -107 8q156 -399 279 -594q16 -27 16 -53q0 -57 -49 -58q-37 0 -64 45q-72 119 -247 529q-156 -311 -213 -479q-27 -76 -78 -76q-55 0 -55 61zM459 776q248 0 448 142q191 132 191 286q0 63 -42 103.5t-118 40.5q-94 0 -231 -78q0 -29 -86 -191q-156 -291 -162 -303z " />
<glyph unicode="S" horiz-adv-x="868" d="M55.5 424q67.5 72 139.5 72q63 0 67 -37q0 -39 -65 -64q-90 -35 -91 -110q0 -55 46.5 -97.5t115.5 -44.5q18 -2 39 -2q115 0 198 67.5t83 145.5q2 106 -162 322q-76 100 -76 233q0 193 178 373q193 195 447 195q70 0 118 -43.5t50 -102.5v-5q0 -135 -193 -300 q-176 -152 -260 -152q-96 0 -92 44q0 49 92 71q127 31 238 146q102 104 102 182q0 57 -65 57q-117 0 -289 -125q-203 -150 -203 -327q0 -94 119 -276.5t119 -311.5q0 -143 -170 -232q-131 -69 -258 -69h-4q-143 0 -222 73q-69 65 -69 159q0 87 67.5 159z" />
<glyph unicode="T" horiz-adv-x="983" d="M158 74q0 135 262 602q184 322 366 643q-137 -14 -280 -55q-131 -39 -154 -39q-63 0 -63 47q0 42 71 74q63 29 148 38q420 117 903 117q111 0 111 -55t-185 -70q-211 -12 -419 -22q6 -6 6 -25q-4 -35 -54 -110q-72 -106 -84 -129q-135 -250 -272 -500 q-170 -328 -219 -524q-23 -92 -74 -93q-25 0 -44 30t-19 71z" />
<glyph unicode="U" horiz-adv-x="1146" d="M16 166q0 252 291 719q252 403 414 534q55 45 94 45q37 0 33 -43q0 -41 -27 -67q-174 -174 -409 -553q-268 -428 -269 -611q0 -59 37 -59q86 0 479 516q487 637 586 737q45 45 82 46q49 -1 49 -60q0 -35 -30 -67q-131 -143 -337 -590t-206 -592q0 -10 3 -28.5t3 -29.5 q0 -65 -51 -65h-2q-31 0 -57.5 31.5t-26.5 85.5q0 166 311 792q-33 -37 -295 -385q-240 -319 -346 -425.5t-201 -108.5q-57 0 -91 47t-34 131z" />
<glyph unicode="V" horiz-adv-x="917" d="M164 119q0 330 115 710q27 82 196 541q37 96 113 96q43 0 43 -41q0 -23 -8 -41q-344 -793 -344 -1302q305 512 374 625q295 475 461 663q64 74 111 74h2q30 -2 30 -41q0 -45 -43 -100q-152 -193 -444 -637q-313 -475 -393 -650q-45 -100 -107 -100q-106 0 -106 203z" />
<glyph unicode="W" horiz-adv-x="1230" d="M47 14q0 72 31 211q18 84 37 170q90 322 239 682q162 389 217 389q52 0 52 -58v-7q-4 -74 -103 -289q-145 -319 -192 -438q-113 -293 -148 -543q63 66 228 344q199 340 264 432q43 61 90 62q45 0 45 -45q0 -10 -2 -17q-158 -410 -158 -674q0 -51 8 -83q53 74 336 626 q260 512 420 692q39 45 79 45h3q49 -1 53 -36q0 -20 -22 -41q-176 -211 -420 -662q-190 -352 -334 -676q-61 -139 -156 -141h-2q-104 0 -104 193q0 49 67 395q-80 -98 -180 -279q-111 -199 -143 -246q-76 -104 -146 -104q-59 0 -59 98z" />
<glyph unicode="X" horiz-adv-x="952" d="M-188 14q0 86 309 430q338 377 354 412q0 451 -65 580q-10 20 -11 39q0 59 68 59q49 0 57 -49q33 -104 54 -268l28 -242q125 121 250 239q180 174 309 254q31 18 45 19q43 0 43 -49q0 -53 -39 -84q-104 -84 -608 -545q-1 -25 -1 -53q0 -176 54 -480q66 -365 66 -354 q0 -53 -63 -53q-51 0 -72 49q-29 92 -62 287q-39 244 -39 418q0 37 3 71q-96 -98 -280.5 -313t-260.5 -315q-63 -86 -111 -86q-29 0 -28 34z" />
<glyph unicode="Y" horiz-adv-x="901" d="M141 588q0 145 119 360q109 197 257.5 351.5t234.5 154.5q61 0 61 -48q0 -39 -76 -87q-141 -90 -266 -256q-98 -135 -162 -283q-48 -111 -48 -156q0 -8 1 -14q10 -23 31 -22q98 0 395 319q266 287 442 545q31 47 72 53h7q55 0 55 -71q0 -41 -33 -80q-219 -258 -471 -695 q-248 -428 -334 -692q-20 -61 -70 -61q-57 0 -57 67q0 82 131 342q127 252 277 478q-211 -211 -224 -222q-132 -114 -239 -114h-2q-100 0 -101 131z" />
<glyph unicode="Z" horiz-adv-x="851" d="M-109 109q0 154 416 602q352 379 709 673q-49 -4 -219 -28q-125 -18 -222 -19q-57 0 -113 27t-56 57q0 45 53 45q8 0 52 -12t87 -12q86 0 285.5 34.5t242.5 36.5h12q93 0 93 -59q0 -53 -49 -84q-350 -283 -701 -655q-324 -344 -481 -584q106 0 338.5 86t286.5 86 q78 0 77 -55q0 -57 -112 -66q-68 -6 -291 -90q-213 -80 -295 -80q-51 0 -82 28t-31 69z" />
<glyph unicode="[" horiz-adv-x="837" d="M162 -178q0 168 219 760q225 610 405 903q29 45 76 45q14 0 50 -4t59 -4t80 22.5t84 22.5q59 0 59 -47q0 -66 -141 -99q-94 -20 -201 -20q-152 -360 -303 -721q-223 -543 -254 -795q117 96 207 97q57 0 57 -48q0 -35 -35 -51q-47 -20 -94 -41q-72 -37 -135 -106 q-33 -35 -68 -35q-66 0 -65 121z" />
<glyph unicode="\" horiz-adv-x="841" d="M461 1415q0 8 20.5 17.5t40.5 9.5q47 0 51 -43l105 -1358q0 -55 -64 -55q-53 0 -53 37q0 14 -100 1392z" />
<glyph unicode="]" horiz-adv-x="837" d="M-203 -215q0 66 142 96q92 20 200 21q152 360 303 721q223 545 254 796q-113 -96 -207 -96q-55 0 -55 45q0 35 35 51q45 20 92 41q72 37 135 107q33 37 68 37q65 0 65 -123q0 -184 -258 -858q-252 -657 -370 -811q-31 -37 -72 -37q-14 0 -50 4t-59 4t-80 -23.5t-83 -23.5 q-59 0 -60 49z" />
<glyph unicode="^" horiz-adv-x="1040" d="M354 924q0 57 257 287.5t307 230.5q37 0 153 -228q113 -219 113 -260q0 -33 -21.5 -48t-40.5 -13q-39 2 -133 216t-98 214q-10 0 -236.5 -213t-259.5 -213q-41 0 -41 27z" />
<glyph unicode="_" horiz-adv-x="1024" d="M0 -131h1032v-133h-1032v133z" />
<glyph unicode="`" horiz-adv-x="540" d="M272 1102q0 51 50 49q25 -2 38 -31q18 -35 97 -131q65 -77 65 -106q0 -31 -35 -31t-84 63q-55 70 -108 142q-23 20 -23 45z" />
<glyph unicode="a" horiz-adv-x="575" d="M6 205v13q0 155 133 347q147 211 293 211q105 0 107 -86q0 -31 -15 -63q12 -8 13 -29q0 -41 -64.5 -183.5t-64.5 -189.5q0 -70 50 -94.5t50 -64.5q0 -41 -54 -41h-5q-51 2 -91 38q-43 41 -43 109v6q0 18 13 70q-102 -174 -213 -176h-3q-101 0 -106 133zM121 252 q0 -43 26 -55q5 -1 10 -1q56 0 158 183q124 221 144 231q-14 53 -58 54q-74 0 -176 -157t-104 -255z" />
<glyph unicode="b" horiz-adv-x="606" d="M-33 96q8 68 199 426q252 479 358 717q63 141 140 141q49 0 49 -49q0 -31 -150 -287q-111 -184 -219 -368q78 66 154 67h3q91 0 91 -106q0 -163 -144 -363q-143 -198 -256 -198h-2q-66 0 -108 55q-8 -31 -37 -57q-27 -24 -48 -23h-3q-27 2 -27 36v9zM115 213 q29 -37 63 -37h2q72 0 184 144q114 146 117 251v6q0 62 -43 62q-72 0 -225 -225q-41 -66 -98 -201z" />
<glyph unicode="c" horiz-adv-x="606" d="M10 209q0 193 164 389q152 184 268 184q66 0 66 -106q0 -74 -51 -145.5t-95 -73.5q-12 0 -22 9t-10 21q0 23 44 77t44 75q0 27 -19 27q-51 0 -170 -160q-120 -165 -120 -256q0 -82 63 -84h4q56 0 129 57q84 63 154 172q20 45 57 45q27 1 31 -28q0 -80 -141.5 -211 t-258.5 -135h-7q-130 0 -130 143z" />
<glyph unicode="d" horiz-adv-x="575" d="M-8 242v6q0 161 114 325q125 182 277 183q53 0 76 -31l213 395q90 166 100 183q46 77 83 77h1q53 0 53 -57q0 -31 -29.5 -78t-58.5 -90q-385 -639 -385 -891q0 -78 39 -114q29 -31 29 -54q0 -35 -49 -35q-53 0 -91 54.5t-40 122.5q0 12 4 43q-84 -209 -211 -209 q-57 0 -91 49t-34 121zM96 274v-6q0 -55 35 -55q63 0 160 166q20 37 135 264q-41 8 -55 8q-96 0 -187 -133q-84 -125 -88 -244z" />
<glyph unicode="e" horiz-adv-x="606" d="M-10 248q0 86 55 196q47 94 102 150q160 160 250 160q39 0 64.5 -26t25.5 -60q2 -66 -71 -162q-55 -72 -121 -127q-57 -57 -180 -98q0 -99 82 -99h2q66 0 161 62.5t164 150.5q33 41 51 41q21 1 21 -30q0 -74 -152 -197q-162 -131 -292 -131q-63 0 -112.5 49t-49.5 121z M131 395q70 0 161 80t91 135q0 27 -25 29q-33 0 -79 -45q-94 -92 -148 -199z" />
<glyph unicode="f" horiz-adv-x="559" d="M-152 -348q0 123 54 282q47 139 123 316q68 156 73 180q-12 -2 -21 -2q-34 0 -34 23q0 57 154 176q295 559 458 757q51 64 106 64h3q45 -2 45 -43q0 -29 -39 -68q-209 -209 -426 -643q137 66 234 66q47 0 81.5 -23.5t38.5 -56.5q0 -18 -25.5 -36.5t-49.5 -18.5 q-12 0 -40 17t-61 17q-41 0 -116 -24q-98 -31 -144 -74q76 -25 113 -112q27 -62 27 -140q0 -13 -1 -26q-20 -416 -178 -641q-119 -170 -252 -170q-51 0 -87 51t-36 129zM-49 -297q0 -94 53 -94q82 0 184 190q115 213 121 467v15q0 158 -80 180q-68 -133 -170 -410 q-109 -289 -108 -348z" />
<glyph unicode="g" horiz-adv-x="671" d="M-283 -424q0 109 130 244t350 246q66 98 65 147q-90 -98 -172 -98q-84 0 -84 100q0 133 160 352q170 233 309 234q47 0 77 -32t32 -77v-5q0 -56 -43 -109q37 0 32 -19q0 -14 -88 -141q-92 -135 -108 -236q123 94 223 236q80 111 90 110q21 1 21 -30q0 -72 -113 -211 q-131 -162 -303 -254q-121 -262 -207 -387q-139 -201 -268 -201q-102 0 -103 131zM-180 -391q0 -43 47 -43q57 0 141 131q69 118 139 237q-72 0 -199.5 -126.5t-127.5 -198.5zM111 260q0 -49 36 -49q82 0 213 219q-35 6 -34 16q0 8 47 58q57 59 86 123q6 10 6 20 q0 33 -33 33q-57 0 -186 -158q-135 -166 -135 -262z" />
<glyph unicode="h" horiz-adv-x="690" d="M-29 106q0 47 72 211q61 139 113 234q141 256 252.5 504t119.5 260q41 74 93 74q57 0 57 -56q0 -43 -180 -348q-199 -340 -236 -440q192 194 304 194h1q49 0 49 -41q0 -14 -10 -39q-72 -111 -141 -221q-82 -133 -82 -178q0 -29 27 -29q51 0 104 70q45 74 92 145 q35 51 66 52q18 -1 18 -19q0 -86 -110 -225q-123 -156 -236 -156q-74 0 -74 92q0 152 174 404q-170 -135 -262 -281q-33 -53 -92 -190q-31 -72 -74 -72q-45 0 -45 55z" />
<glyph unicode="i" horiz-adv-x="294" d="M-33 131q0 102 96 291q82 158 183 289q29 37 59 37q35 -4 35 -39t-27 -66q-57 -70 -149 -262q-84 -180 -98 -250q-13 -72 -54 -72h-4q-16 0 -28.5 22.5t-12.5 49.5zM371 997q0 47 51 102.5t86 55.5q47 0 47 -53q0 -51 -52 -104.5t-89 -53.5q-43 0 -43 53z" />
<glyph unicode="j" horiz-adv-x="491" d="M-539 -457q0 143 162 307q68 70 199 142q154 84 162 90q20 45 159 364q76 176 136 265q22 32 61 32h2q49 0 49 -41q0 -18 -14 -43q-51 -88 -105 -176q-70 -127 -141 -301q156 111 229 248q20 39 58 39q41 0 41 -35q0 -10 -15 -39q-43 -84 -143 -182q-117 -113 -252 -180 q-117 -274 -186 -383q-133 -211 -273 -211q-129 0 -129 104zM-436 -424q0 -37 43 -37q68 0 184 174q111 168 111 236q-119 -45 -232 -178q-106 -123 -106 -195zM418 983q4 43 55 98.5t86 55.5q45 0 45 -47q2 -51 -48 -105.5t-89 -56.5h-3q-46 0 -46 55z" />
<glyph unicode="k" horiz-adv-x="786" d="M-39 139q0 12 6 27q139 342 371 729q322 537 510 553q70 0 70 -96q0 -129 -146 -316q-178 -225 -510 -442l-82 -164q82 100 219.5 195.5t202.5 95.5q39 0 39 -41q0 -27 -59 -49q-90 -35 -138 -70q-76 -166 -77 -274q0 -53 19.5 -80t55.5 -27q53 0 126 62.5t139 171.5 q10 41 49 41q23 0 22 -25q0 -74 -123 -213q-137 -156 -254 -156q-61 0 -100 64q-35 57 -35 147q0 59 13 158q-90 -94 -197 -299q-23 -45 -70 -45q-51 0 -51 53zM344 741q131 100 279 248q74 74 129 156q63 88 63 131q0 27 -29 27q-74 0 -245 -244q-133 -188 -197 -318z" />
<glyph unicode="l" horiz-adv-x="475" d="M33 264q78 268 301 680q285 520 467 520q69 0 69 -94q0 -166 -235 -471q-211 -274 -438 -453q-63 -135 -68 -196q-2 -39 18 -39q37 0 107 77t90 142q18 41 45 41q37 0 37 -43q0 -74 -128 -205t-198 -131q-77 0 -77 100q0 38 10 72zM295 659q150 113 315 351 q158 229 158 317q0 29 -23 29q-51 0 -219 -252q-170 -260 -231 -445z" />
<glyph unicode="m" horiz-adv-x="786" d="M-49 98q25 154 146.5 390.5t181.5 236.5q45 0 45 -25q0 -20 -48 -92q-57 -88 -79 -147q86 78 172 157q70 57 123 58q41 0 40 -25q0 -25 -47 -88q-55 -72 -59 -86q86 74 170 148q98 86 158 86q57 0 57 -41q0 -20 -66 -101q-88 -109 -120 -161q-66 -102 -66 -183 q0 -37 29.5 -76.5t29.5 -52.5q0 -25 -19 -44t-42 -19q-41 -1 -71 59q-33 63 -33 133q0 114 106 269q-119 -96 -192 -209l-82 -148q-31 -55 -72 -55q-37 0 -37 45q0 59 53 174q47 104 99 176q-190 -119 -279 -395q-15 -47 -48 -47h-5q-45 0 -45 63z" />
<glyph unicode="n" horiz-adv-x="559" d="M116 448q142 263 179 263q49 0 47 -39q0 -31 -41 -99q-27 -49 -55 -96q82 78 162 154q88 80 151 80q51 0 53 -29v-2q0 -30 -63 -115q-84 -113 -105 -151q-86 -172 -86 -271q0 -43 19.5 -77.5t19.5 -61.5q0 -41 -37 -41q-39 0 -73.5 49t-34.5 119q2 143 92 330 q-88 -61 -158 -164q-47 -74 -94 -150q-44 -65 -91 -65h-1q-31 0 -31 33q0 62 147 333z" />
<glyph unicode="o" horiz-adv-x="507" d="M2 205q2 176 137 375q146 213 302 213h3q76 -3 76 -107q0 -164 -137 -387q-143 -233 -268 -233q-113 0 -113 139zM106 268q0 -78 50 -78q41 0 82 46q49 53 75 143q-33 0 -30 18q2 20 43 72q55 72 67 92q23 39 27 74q0 41 -37 41q-57 0 -166 -150q-111 -156 -111 -258z " />
<glyph unicode="p" horiz-adv-x="575" d="M-299 -522q0 170 365 852q102 201 204 399q68 127 107 127q45 0 45 -33t-78 -164q80 68 154 68q92 0 92 -113q0 -125 -139 -319q-156 -217 -301 -217q-53 0 -84 37q-106 -217 -185 -416q-39 -102 -78 -207q-27 -55 -69 -55q-33 0 -33 41zM98 197q23 -23 58 -23 q92 0 204 160q107 150 113 246v6q0 41 -29 41q-135 0 -346 -430z" />
<glyph unicode="q" horiz-adv-x="559" d="M-4 -571q0 84 102 333q90 209 181 420q-98 -121 -177 -121q-86 0 -86 132q0 184 168 393q159 198 274 198h1q43 0 69.5 -25.5t26.5 -62.5q0 -25 -14 -53q45 -8 47 -37q0 -23 -21.5 -64.5t-42.5 -80.5q-152 -328 -215 -473q-125 -287 -178 -449q-12 -51 -25 -102 q-23 -63 -73 -64q-37 0 -37 56zM129 246q0 -57 37 -58q74 0 178 191q-10 8 -10 20q2 20 53 76.5t57.5 84.5t6.5 63q0 53 -33 53q-49 0 -166 -160q-123 -170 -123 -270z" />
<glyph unicode="r" horiz-adv-x="671" d="M-88 68q0 84 151 364q160 293 232 293q31 0 33 -18q0 -23 -60 -105q-70 -96 -88 -141q98 88 197 176q123 104 168 104q43 0 43 -26q0 -27 -64 -86q-82 -80 -78 -111q4 -23 33 -22q82 0 144 65q25 20 39 21q30 4 30 -31q0 -43 -97 -107.5t-169 -64.5q-100 0 -100 100 q0 14 2 33q-88 -90 -174 -211q-90 -127 -105 -186q-10 -41 -37.5 -65.5t-54.5 -24.5q-45 0 -45 43z" />
<glyph unicode="s" horiz-adv-x="559" d="M-37 236q0 68 31 127q30 57 73 57h3q23 0 22 -23q0 -16 -19.5 -53t-19.5 -65q0 -57 30 -102.5t64 -45.5q95 0 95 82q0 77 -78 182q-31 63 -31 119q2 117 113 209q106 86 229 86q154 0 154 -119q0 -78 -72 -141q-80 -72 -197 -72q-61 0 -61 35v6q0 35 78 43q61 6 98 41 q33 27 33 60q0 51 -57 51q-78 0 -144.5 -58.5t-66.5 -130.5q0 -37 48 -138q46 -97 46 -180v-7q-2 -166 -187 -166q-184 0 -184 203z" />
<glyph unicode="t" horiz-adv-x="540" d="M47 221q0 188 199 504q-43 -16 -68 -16q-47 0 -47 49q0 41 60.5 55t121.5 29q174 283 250 288h5q12 0 18 -8q8 -10 8 -28q0 -33 -47 -95q-59 -82 -72 -108q102 27 168 29h8q56 0 56 -29q1 -4 1 -8q0 -48 -90 -62q-170 -23 -225 -45q-223 -421 -223 -543q0 -51 37 -51 q41 2 108.5 72t110.5 160q18 37 43 37q33 4 33 -37q0 -90 -113 -211q-117 -127 -215 -127q-51 0 -89 40t-38 105z" />
<glyph unicode="u" horiz-adv-x="575" d="M-14 207q0 115 108.5 292t184.5 177q49 0 49 -23q0 -20 -88 -135q-96 -129 -125 -221q-12 -41 -13 -66q0 -33 15 -32q35 0 114 104q86 115 146 258q41 100 90 103h3q44 0 44 -66q0 -35 -22 -70q-96 -152 -97 -256q0 -90 64 -122q55 -29 55 -66q0 -33 -70 -33t-112 45 q-40 43 -39 112v7q0 12 2 33q-115 -166 -203 -166q-43 0 -74.5 34t-31.5 91z" />
<glyph unicode="v" horiz-adv-x="606" d="M-33 217q0 78 82 238q113 217 115 221q10 43 47 43q41 0 41 -45q0 -37 -87 -210t-87 -218q0 -31 20 -33q39 0 108.5 84t106.5 180q-4 14 -8 39v7q0 88 49 153q45 57 92 57q41 0 41 -54v-5q-2 -70 -77 -197q16 -12 39 -10q37 2 88 43t61 41q31 0 31 -45q0 -57 -62.5 -99 t-122.5 -45q-39 0 -84 17q-53 -106 -149 -203q-95 -95 -151 -95q-5 0 -11 1q-82 16 -82 135z" />
<glyph unicode="w" horiz-adv-x="837" d="M-6 167q0 94 112 292q121 215 205 215q49 0 49 -37q0 -31 -48 -77t-117 -146q-74 -111 -76 -150q0 -16 12 -16q3 -1 7 -1q50 0 163 136q80 96 158 195q49 61 100 61q39 0 39 -37q0 -25 -23 -57q-47 -70 -90 -160q-53 -106 -53 -156q0 -33 27 -32q39 0 143.5 171 t104.5 242q12 129 86 135h5q20 0 31 -16q13 -18 13 -55q-2 -104 -152 -344q-164 -264 -280 -264q-90 0 -91 100q0 80 58 196q-102 -154 -168 -212q-72 -68 -143 -68q-72 0 -72 85z" />
<glyph unicode="x" horiz-adv-x="559" d="M-117 84q0 41 97 143q84 84 167 168q0 215 7 264q8 66 43 66q57 0 57 -78q0 -16 -4 -62t-4 -73q49 49 164 182q25 31 57 31q39 0 39 -33q0 -29 -109 -141q-127 -131 -151 -172q-10 -55 -10 -92q0 -72 34 -76h4q34 1 84 57q54 60 101 146q18 29 49 32q27 5 31 -26v-7 q0 -55 -113 -194q-122 -153 -196 -153h-1q-82 0 -82 215q-53 -74 -127 -150q-76 -80 -98 -80h-2q-39 6 -37 33z" />
<glyph unicode="y" horiz-adv-x="737" d="M-262 -395q0 123 164 266q154 133 360 211q47 84 92 168q35 66 56 129q-78 -117 -181.5 -199t-160.5 -82q-68 0 -68 99q0 106 150 299q141 182 188 182q35 0 35 -45q0 -23 -126 -171.5t-126 -203.5q0 -23 18 -22q49 0 254 235.5t238 235.5q55 0 55 -56q0 -18 -100 -194 q-113 -195 -142 -275q160 115 228 232q29 51 57 51q33 0 33 -43q0 -53 -135 -184q-141 -139 -267 -187q-113 -319 -256 -489q-119 -139 -219 -140q-70 0 -110 56q-37 49 -37 127zM-147 -379q0 -82 61 -82q39 0 86 47q61 61 125 191q45 96 88 190q-154 -78 -266 -198 q-94 -100 -94 -148z" />
<glyph unicode="z" horiz-adv-x="475" d="M-72 113q0 98 170 274q74 78 279 256q-164 -20 -180 -20q-98 0 -99 71q0 33 51.5 33t173 6t156.5 6q70 0 70 -45q0 -33 -207 -223q-219 -205 -244 -258q72 25 154 25q125 0 125 -56q0 -63 -50 -63h-5q-14 0 -60.5 7t-75.5 7q-45 0 -114.5 -31.5t-100.5 -31.5 q-43 0 -43 43z" />
<glyph unicode="{" horiz-adv-x="917" d="M262 643q0 29 182 113q217 98 246 118q78 55 193 256q123 217 215 304q158 145 391 145q102 0 102 -45q0 -53 -73 -57h-123q-61 -8 -117 -41q-109 -66 -178 -160q-39 -53 -101.5 -176t-111.5 -189.5t-190.5 -154.5t-237.5 -113q137 -84 137 -258q0 -82 -82 -240.5 t-82 -183.5q0 -59 44 -110.5t97 -51.5q18 0 50 8.5t41 8.5q37 0 36 -23q0 -25 -34.5 -49.5t-75.5 -24.5q-276 0 -277 215q0 70 84 227.5t84 223.5q0 72 -109.5 145.5t-109.5 112.5z" />
<glyph unicode="|" horiz-adv-x="358" d="M119 8q0 51 354 1407q18 72 88 72q12 0 25.5 -15.5t13.5 -33.5v-6l-362 -1424q-8 -31 -62 -31q-57 0 -57 31z" />
<glyph unicode="}" horiz-adv-x="917" d="M-412 -213q0 51 82 55q137 4 150 8q41 12 80 35q109 66 178 160q37 51 99.5 175t115.5 194q47 63 189.5 150t238.5 112q-137 84 -137 258q0 84 82 242.5t82 183.5q0 59 -44.5 110.5t-97.5 51.5q-18 0 -51 -8.5t-41 -8.5q-35 0 -35 23t34 48.5t77 25.5q276 0 276 -218 q0 -68 -84 -225.5t-84 -224.5q0 -72 108.5 -145.5t108.5 -112.5q0 -29 -180 -111q-215 -96 -246 -119q-78 -55 -192 -258q-123 -217 -215 -303q-158 -145 -393 -145q-100 0 -101 47z" />
<glyph unicode="~" horiz-adv-x="1148" d="M272 727q0 57 144.5 156.5t236.5 99.5q41 0 154 -106.5t170 -106.5q70 0 121 66q39 59 77.5 121.5t79.5 62.5q27 0 27 -49q0 -96 -94 -195q-104 -109 -238 -108q-82 0 -143 55q-45 51 -91 103.5t-98 50.5q-27 0 -144.5 -92.5t-158.5 -92.5q-43 0 -43 35z" />
<glyph horiz-adv-x="1095" d="M25 494q0 25 43 41q37 14 88 14h104q23 45 41 78h-49q-117 0 -117 30q0 55 131 56h86q125 195 275 340q178 170 293 168q55 0 93 -44t38 -104q-35 -33 -58 -33t-23.5 46.5t-39.5 46.5q-78 0 -217 -142q-111 -115 -226 -278h277q98 0 98 -45q0 -41 -112 -41h-320 q-25 -43 -43 -78h266q98 0 99 -45q0 -39 -113 -39h-291q-61 -143 -61 -238q-2 -143 104 -143q88 0 135 18q72 31 222 148q43 55 75 53q18 0 19 -20q0 -25 -11 -41q-74 -109 -219 -184.5t-260 -75.5q-88 0 -141 56t-55 163q0 104 67 264h-82q-117 0 -116 29z" />
<glyph unicode="&#xa1;" horiz-adv-x="575" d="M-59 -330q0 43 24 84l543 924q23 41 45 82q23 33 53 33q55 0 60 -50q2 -39 -43 -116l-543 -924q-49 -82 -80 -82q-59 0 -59 49zM653 952q-2 68 28 116t81 48t53 -59q0 -45 -33 -109q-35 -70 -69 -71q-56 -5 -60 75z" />
<glyph unicode="&#xa2;" horiz-adv-x="671" d="M27 397q0 129 114 281q143 193 383 246q4 6 37 75q16 39 45 39q47 0 43 -26q0 -25 -59 -105q74 -37 74 -127q0 -61 -55.5 -125.5t-92.5 -64.5q-31 0 -31 31q0 25 23 38q70 53 70 115q0 35 -37 35q-33 0 -279 -463q172 0 297 148q25 39 51 34q39 0 39 -43 q0 -66 -148.5 -152.5t-246.5 -88.5q-27 0 -41 4q-39 -82 -80 -166q-37 -66 -67 -66q-25 6 -25 33t31 88q29 55 59 111q-104 41 -104 149zM147 424q-2 -61 50 -62q79 162 247 447q-115 -45 -208 -176q-86 -121 -89 -209z" />
<glyph unicode="&#xa3;" horiz-adv-x="999" d="M-70 18q2 55 70 80q205 72 360 480q-16 0 -66 -7.5t-75 -7.5q-72 -2 -72 47q0 66 93 66h30.5h30.5q76 0 125 18q154 309 231 402q102 125 250 127q61 0 100.5 -16.5t39.5 -41.5q-2 -45 -70 -45q-6 0 -19.5 2t-17.5 2q-127 2 -242 -151q-51 -68 -139 -248q53 6 123 25 q57 14 82 14q41 0 72.5 -20.5t31.5 -41.5q-2 -59 -82 -59q-12 0 -31.5 4t-31.5 4q-59 0 -231 -41q-12 -76 -84 -215q-74 -145 -146 -229q12 2 168 41q119 29 186 29q109 -2 109 -58q0 -61 -113 -61q-137 0 -336 -64q-256 -82 -276 -86q-31 -6 -50.5 9.5t-19.5 41.5z" />
<glyph unicode="&#xa4;" horiz-adv-x="1095" d="M25 494q0 25 43 41q37 14 88 14h104q23 45 41 78h-49q-117 0 -117 30q0 55 131 56h86q125 195 275 340q178 170 293 168q55 0 93 -44t38 -104q-35 -33 -58 -33t-23.5 46.5t-39.5 46.5q-78 0 -217 -142q-111 -115 -226 -278h277q98 0 98 -45q0 -41 -112 -41h-320 q-25 -43 -43 -78h266q98 0 99 -45q0 -39 -113 -39h-291q-61 -143 -61 -238q-2 -143 104 -143q88 0 135 18q72 31 222 148q43 55 75 53q18 0 19 -20q0 -25 -11 -41q-74 -109 -219 -184.5t-260 -75.5q-88 0 -141 56t-55 163q0 104 67 264h-82q-117 0 -116 29z" />
<glyph unicode="&#xa5;" horiz-adv-x="901" d="M-16 297q0 25 147 39q176 18 197 26l32 52q-14 0 -76.5 -8.5t-95.5 -8.5q-90 0 -90 49q0 43 140 54q174 14 206 28q0 18 31 50q0 137 -19.5 295.5t-45.5 232.5q-6 16 -7 31q0 41 43 41t62 -41q51 -123 82 -426q125 154 250 307q193 225 258 225q51 0 51 -63 q0 -29 -19 -43q-139 -113 -524 -576q72 10 82 10q133 0 133 -59q0 -37 -98 -41q-72 -4 -143 -8q-27 -6 -56 -17l-32 -51q143 0 137 0q61 -6 61 -49q0 -41 -47 -43q-12 0 -50 2t-65 2q-41 0 -118 -10q-70 -123 -142 -246q-98 -156 -151 -155q-45 0 -45 45q0 33 60.5 136 t129.5 187q-49 -4 -129 -18q-68 -10 -92 -10q-57 2 -57 61z" />
<glyph unicode="&#xa7;" horiz-adv-x="1036" d="M96 174q0 51 19.5 87t48.5 36q33 0 33 -53q-16 -45 -17 -66q0 -143 242 -143q158 0 348.5 149.5t190.5 264.5q0 123 -166 122q-12 0 -151.5 -31.5t-266.5 -31.5q-66 0 -111 33q-51 35 -51 90q0 94 139 266q0 10 -4 27.5t-4 25.5q0 236 201 387q176 135 395 136 q80 0 182.5 -63t102.5 -114t-60 -47q-16 2 -47 41q-41 49 -76 70q-59 39 -141 39q-154 0 -309.5 -140.5t-155.5 -269.5q0 -84 135 -84q35 0 142.5 33t202.5 33q111 0 174 -50.5t63 -138.5q0 -102 -119 -252q4 -12 4 -55q0 -217 -239 -381q-215 -145 -436 -145 q-117 0 -193 59.5t-76 165.5zM315 672q0 -82 140 -82q51 0 194 31q137 31 205 28q88 -2 141 -49q72 80 70 164q-2 61 -47 101t-119 40q-43 0 -148.5 -37t-181.5 -37q-119 0 -151 19q-102 -78 -103 -178z" />
<glyph unicode="&#xa8;" horiz-adv-x="706" d="M147 987q0 49 58 105q51 49 86 49q43 0 43 -47q0 -39 -54.5 -96.5t-89.5 -57.5q-43 0 -43 47zM375 985q0 49 57 102q51 49 86 50q43 0 43 -45q0 -39 -54 -96.5t-91 -57.5q-41 0 -41 47z" />
<glyph unicode="&#xa9;" horiz-adv-x="1542" d="M131 643q-12 338 199 559q203 211 508 217q283 6 512 -198q253 -226 241 -562q-12 -332 -252 -524q-209 -168 -487 -168q-270 0 -477 170q-231 193 -244 506zM244 709q0 -33 2 -66q23 -287 227 -442q174 -135 412 -135q221 0 395 161q185 172 197 432q12 274 -167.5 461 t-471.5 199q-256 -12 -420 -170q-174 -170 -174 -440zM502 424q-2 102 86 278q72 145 207 287q150 156 243 156q47 0 80 -37t33 -90q2 -127 -141 -270q-29 -29 -66 -29q-57 0 -63 57q0 43 43 72q125 98 125 176q0 6 -2 6q-68 0 -193 -153q-100 -125 -147 -222 q-66 -133 -68 -215q-2 -68 47 -69q102 -2 227 198q33 53 76 47q35 0 35 -38q0 -23 -10 -41q-74 -137 -176 -218q-94 -70 -181 -69q-154 0 -155 174z" />
<glyph unicode="&#xaa;" horiz-adv-x="360" d="M313 924v51h342v-51h-342zM358 1143q-4 92 78 207.5t166 115.5q68 0 70 -59q0 -10 -6 -31q4 -8 4 -18q0 -23 -35 -100.5t-35 -102.5q0 -39 26.5 -53.5t26.5 -36.5q0 -35 -45 -33q-31 0 -53 25q-29 27 -29 69q0 4 6 41l21 -8q-57 -98 -127 -100q-63 -2 -68 84zM442 1167 q0 -16 7 -18q29 -10 81 88q70 125 74 131q-6 16 -18 16q-39 0 -91.5 -82.5t-52.5 -134.5z" />
<glyph unicode="&#xab;" horiz-adv-x="606" d="M88 455q0 45 69.5 124.5t110.5 79.5q62 0 62 -43q0 -23 -58.5 -77t-58.5 -62q0 -25 26.5 -72t26.5 -73q0 -59 -55 -60q-27 0 -75 67t-48 116zM330 451q0 45 69.5 124.5t110.5 79.5q61 0 61 -43q0 -23 -58 -77t-58 -62q0 -25 26.5 -72t26.5 -73q0 -59 -55 -60 q-27 0 -75 66.5t-48 116.5z" />
<glyph unicode="&#xac;" horiz-adv-x="1105" d="M231 584q0 33 17.5 58.5t46.5 25.5h811q10 0 22.5 -20t12.5 -34q-61 -371 -150 -370q-45 0 -45 45q0 43 80 278q-281 -12 -487 -12q-307 0 -308 29z" />
<glyph unicode="&#xad;" horiz-adv-x="694" d="M84 414v114h541v-114h-541z" />
<glyph unicode="&#xae;" horiz-adv-x="1542" d="M115 725q12 305 200 512q205 227 523 215q305 -12 501 -203q208 -198 220 -524t-211 -537q-215 -205 -543 -204q-311 0 -512 229q-190 217 -178 512zM213 725q-12 -270 186 -463q186 -180 422 -180q246 0 428 162q207 182 195 481q-12 295 -217 473q-172 150 -389 156 q-242 6 -424 -168q-188 -182 -201 -461zM461 371q0 35 43 133q47 106 110 209q-6 25 -6 41q0 61 64 65l84 131q0 -4 -4 -14q27 18 32 22v5l-14 -2q-12 0 -29.5 19t-17.5 36q0 45 102 106q12 59 68 60q29 0 43 -19q51 14 94 15q82 0 127 -62q37 -51 37 -112 q-2 -127 -133 -227.5t-295 -98.5q47 -109 133 -275q12 -20 12 -43q0 -66 -57 -65q-39 0 -63 41q-41 66 -109 231q-66 -133 -88.5 -197.5t-71.5 -64.5q-25 0 -43 20.5t-18 45.5zM807 805q109 14 188.5 73.5t79.5 127.5q0 49 -57 49q-35 0 -103 -37q-16 -43 -108 -213z" />
<glyph unicode="&#xb2;" horiz-adv-x="413" d="M47 930q0 29 33 61q98 98 373 299q39 29 39 70q0 39 -52 39q-37 0 -86 -41t-59 -41q-45 0 -45 31q0 35 72.5 83t154.5 48q49 0 80 -33t31 -74q0 -80 -168 -205q-213 -160 -234 -184q86 25 146 25q84 0 84 -50q0 -43 -27 -43q-2 0 -27.5 4.5t-50.5 4.5q-70 0 -166 -33 q-27 -8 -43 -8q-55 2 -55 47z" />
<glyph unicode="&#xb3;" horiz-adv-x="378" d="M25 1012q0 78 67 78q35 0 35 -40t2 -46q6 -23 39 -23q49 0 100 65.5t51 114.5q0 20 -13 40t-32 18q-8 0 -26.5 -5.5t-24.5 -3.5q-12 0 -21 15.5t-9 27.5q0 23 45 43q39 16 75 31q53 31 54 64q4 25 -31 24q-20 0 -64.5 -24.5t-58.5 -24.5q-35 0 -35 25q0 29 60.5 65.5 t121.5 36.5q97 2 107 -94q0 -78 -109 -137q45 -33 45 -97q0 -96 -88 -185t-172 -89q-45 0 -81.5 32.5t-36.5 88.5z" />
<glyph unicode="&#xb4;" horiz-adv-x="540" d="M258 852q0 51 92 156.5t129 105.5q43 0 43 -35q0 -18 -14 -41q-164 -217 -217 -217q-33 0 -33 31z" />
<glyph unicode="&#xb7;" horiz-adv-x="622" d="M172 446q0 47 34 112t68 65q58 0 56 -82q0 -49 -39 -104.5t-74 -53.5q-45 2 -45 63z" />
<glyph unicode="&#xb8;" horiz-adv-x="327" d="M-82 -414q0 18 56.5 74.5t58.5 79.5q4 35 -47.5 49t-51.5 29q0 18 50 71q82 92 98 111h49q-66 -68 -65 -115q51 -27 51 -80q0 -68 -70 -148.5t-113 -80.5q-16 0 -16 10z" />
<glyph unicode="&#xb9;" horiz-adv-x="278" d="M29 918q-2 20 43 114q70 143 161 303q-78 -49 -108 -51q-29 0 -35 31q-6 23 55 53q74 41 82 49q74 59 123 62q39 2 39 -33q0 -20 -10 -37q-158 -266 -244 -440q-43 -88 -65 -88q-41 0 -41 37z" />
<glyph unicode="&#xba;" horiz-adv-x="344" d="M262 907v68h344v-68h-344zM362 1120q0 100 78 213q84 123 174 121q54 0 54 -70q0 -92 -80 -217q-82 -133 -154 -133t-72 86zM440 1157q0 -33 17 -33q45 0 71 84q-18 6 -12 25q20 29 64 92q12 21 12 33t-10 12q-31 0 -86.5 -81t-55.5 -132z" />
<glyph unicode="&#xbb;" horiz-adv-x="606" d="M66 311q0 23 57 77t57 63q0 27 -26.5 73.5t-26.5 73.5q0 57 55 57q27 0 74 -63q49 -70 49 -119q0 -43 -69.5 -124t-110.5 -81q-59 0 -59 43zM305 307q0 23 58.5 77t58.5 62q0 25 -26.5 73t-26.5 75q0 57 55 57q27 0 74 -63q49 -70 49 -119q0 -43 -69.5 -124t-110.5 -81 q-61 0 -62 43z" />
<glyph unicode="&#xbc;" horiz-adv-x="1208" d="M76 41q-2 39 39 80q289 502 694 1089q68 100 115 156q94 111 143 111q27 0 45 -23.5t16 -46.5q0 -18 -34 -61q-59 -68 -117 -136q-274 -322 -729 -1122q-39 -70 -43 -76q-23 -31 -47 -32q-82 0 -82 61zM111 918q-2 20 43 114q70 143 161 303q-78 -49 -108 -51 q-29 0 -35 31q-6 23 55 53q74 41 82 49q74 59 123 62q39 2 39 -33q0 -18 -10 -37q-158 -266 -244 -440q-43 -88 -65 -88q-41 0 -41 37zM676 258q0 59 175 222t245 163q51 0 51 -41q0 -23 -33 -74q-49 -74 -61 -96l-45 -84q10 2 28 2q70 0 56 -49q-8 -29 -32 -36t-91 -7 q-53 -92 -86 -201q-18 -59 -47 -59q-47 0 -50 49q0 31 29 98q25 51 47 103q-35 -2 -83 -14.5t-64 -12.5q-39 0 -39 37zM807 324q29 2 100 12q15 31 99 176q-92 -68 -199 -188z" />
<glyph unicode="&#xbd;" horiz-adv-x="1239" d="M76 41q-2 39 39 80q289 502 694 1089q68 100 115 156q94 111 143 111q27 0 45 -23.5t16 -46.5q0 -18 -34 -61q-59 -68 -117 -136q-274 -322 -729 -1122q-39 -70 -43 -76q-23 -31 -47 -32q-82 0 -82 61zM141 877q-2 20 43 114q70 143 162 303q-78 -49 -108 -51 q-29 0 -35 31q-6 23 55 53q74 41 82 49q74 59 123 62q39 2 39 -33q0 -18 -10 -37q-158 -266 -244 -440q-43 -88 -66 -88q-41 0 -41 37zM610 100q0 29 33 62q98 98 373 299q39 29 39 69q0 39 -51 39q-37 0 -86.5 -41t-59.5 -41q-45 0 -45 31q0 35 72.5 83t154.5 48 q49 0 80 -32.5t31 -73.5q0 -80 -168 -205q-213 -160 -233 -184q86 25 145 24q84 0 84 -49q0 -43 -27 -43q-2 0 -27.5 4t-50.5 4q-70 0 -165 -33q-27 -8 -43 -8q-55 2 -56 47z" />
<glyph unicode="&#xbe;" horiz-adv-x="1239" d="M76 41q-2 39 39 80q289 502 694 1089q68 100 115 156q94 111 143 111q27 0 45 -23.5t16 -46.5q0 -18 -34 -61q-59 -68 -117 -136q-274 -322 -729 -1122q-39 -70 -43 -76q-23 -31 -47 -32q-82 0 -82 61zM86 950q0 78 68 78q35 0 34.5 -40t1.5 -46q6 -23 39 -22 q49 0 100.5 65.5t51.5 114.5q0 20 -13.5 39.5t-31.5 17.5q-8 0 -26.5 -5t-24.5 -3q-12 0 -21.5 15.5t-9.5 27.5q0 23 45 43q39 16 76 31q53 31 53 63q4 25 -31 25q-20 0 -64 -24.5t-59 -24.5q-35 0 -34 24q0 29 60 66t122 37q96 1 106 -95q0 -78 -108 -137q45 -33 45 -96 q0 -96 -88 -185.5t-172 -89.5q-45 0 -82 33t-37 88zM653 248q0 59 176.5 222t245.5 163q51 0 51 -43q0 -20 -32 -72q-51 -74 -64 -96l-43 -84q10 2 29 2q68 0 55 -49q-8 -29 -31.5 -36t-91.5 -7q-53 -92 -86 -201q-18 -59 -47 -59q-47 0 -49 47q0 33 29 100q23 51 47 103 q-35 -2 -83 -14.5t-65 -12.5q-41 0 -41 37zM784 311q31 4 103 15q14 31 98 174q-94 -66 -201 -189z" />
<glyph unicode="&#xbf;" horiz-adv-x="804" d="M31 -178q0 127 137 260q31 31 274 221q166 131 207 225q74 166 150 166q41 0 41 -47q0 -129 -238 -366q-31 -31 -170 -125.5t-203 -155.5q-98 -96 -98 -184q0 -96 111 -97q98 0 196 70q49 35 148 131q70 70 98 70q41 0 41 -49q0 -82 -169 -202t-296 -120 q-102 0 -165.5 56.5t-63.5 146.5zM780 987q0 66 32 116t79 48q53 -2 49 -66q-2 -45 -35 -104q-35 -66 -67 -68q-58 -4 -58 74z" />
<glyph unicode="&#xc0;" d="M-96 18q2 61 100 232l160 262q-121 -55 -160 -55q-37 -4 -37 37q0 51 127 104q100 39 201 78q193 293 422 549q242 270 323 272q60 0 60 -74q-6 -76 -72 -268q-92 -268 -110 -330q45 8 55 9q86 0 88 -48q2 -33 -41 -55q-51 -27 -135 -20q-68 -260 -92 -467 q-10 -106 -21 -211q-8 -49 -51 -49q-72 0 -70 151q2 131 103 559l-410 -116q-119 -182 -219 -367q-86 -158 -102 -180q-35 -47 -89 -47q-31 0 -30 34zM459 725l327 84q16 80 88 270q62 164 62 207q-78 -45 -250 -256q-152 -184 -227 -305zM794 1798q0 51 50 49q25 -2 38 -31 q18 -35 97 -131q65 -77 65 -106q0 -31 -35 -31t-84 63q-55 70 -108 142q-23 20 -23 45z" />
<glyph unicode="&#xc1;" d="M-96 18q2 61 100 232l160 262q-121 -55 -160 -55q-37 -4 -37 37q0 51 127 104q100 39 201 78q193 293 422 549q242 270 323 272q60 0 60 -74q-6 -76 -72 -268q-92 -268 -110 -330q45 8 55 9q86 0 88 -48q2 -33 -41 -55q-51 -27 -135 -20q-68 -260 -92 -467 q-10 -106 -21 -211q-8 -49 -51 -49q-72 0 -70 151q2 131 103 559l-410 -116q-119 -182 -219 -367q-86 -158 -102 -180q-35 -47 -89 -47q-31 0 -30 34zM459 725l327 84q16 80 88 270q62 164 62 207q-78 -45 -250 -256q-152 -184 -227 -305zM1036 1548q0 51 92 156.5 t129 105.5q43 0 43 -35q0 -18 -14 -41q-164 -217 -217 -217q-33 0 -33 31z" />
<glyph unicode="&#xc2;" d="M-96 18q2 61 100 232l160 262q-121 -55 -160 -55q-37 -4 -37 37q0 51 127 104q100 39 201 78q193 293 422 549q242 270 323 272q60 0 60 -74q-6 -76 -72 -268q-92 -268 -110 -330q45 8 55 9q86 0 88 -48q2 -33 -41 -55q-51 -27 -135 -20q-68 -260 -92 -467 q-10 -106 -21 -211q-8 -49 -51 -49q-72 0 -70 151q2 131 103 559l-410 -116q-119 -182 -219 -367q-86 -158 -102 -180q-35 -47 -89 -47q-31 0 -30 34zM459 725l327 84q16 80 88 270q62 164 62 207q-78 -45 -250 -256q-152 -184 -227 -305zM913 1612q0 41 56 86q63 51 143 51 q33 0 86 -64.5t53 -111.5t-49 -47q-25 0 -64.5 51t-58.5 57q-10 0 -54 -27.5t-71 -27.5q-41 0 -41 33z" />
<glyph unicode="&#xc3;" d="M-96 18q2 61 100 232l160 262q-121 -55 -160 -55q-37 -4 -37 37q0 51 127 104q100 39 201 78q193 293 422 549q242 270 323 272q60 0 60 -74q-6 -76 -72 -268q-92 -268 -110 -330q45 8 55 9q86 0 88 -48q2 -33 -41 -55q-51 -27 -135 -20q-68 -260 -92 -467 q-10 -106 -21 -211q-8 -49 -51 -49q-72 0 -70 151q2 131 103 559l-410 -116q-119 -182 -219 -367q-86 -158 -102 -180q-35 -47 -89 -47q-31 0 -30 34zM459 725l327 84q16 80 88 270q62 164 62 207q-78 -45 -250 -256q-152 -184 -227 -305zM830 1657q0 49 34 80q29 27 70 27 q20 0 61 -8q27 -6 101 -54q66 -43 98 -41q18 2 55 35t54 33q22 0 22 -41q0 -45 -37 -87t-92 -42q-51 0 -143 64.5t-125 64.5q-14 0 -29.5 -35t-38.5 -35q-31 0 -30 39z" />
<glyph unicode="&#xc4;" d="M-96 18q2 61 100 232l160 262q-121 -55 -160 -55q-37 -4 -37 37q0 51 127 104q100 39 201 78q193 293 422 549q242 270 323 272q60 0 60 -74q-6 -76 -72 -268q-92 -268 -110 -330q45 8 55 9q86 0 88 -48q2 -33 -41 -55q-51 -27 -135 -20q-68 -260 -92 -467 q-10 -106 -21 -211q-8 -49 -51 -49q-72 0 -70 151q2 131 103 559l-410 -116q-119 -182 -219 -367q-86 -158 -102 -180q-35 -47 -89 -47q-31 0 -30 34zM459 725l327 84q16 80 88 270q62 164 62 207q-78 -45 -250 -256q-152 -184 -227 -305zM895 1591q0 49 58 105q51 49 86 49 q43 0 43 -47q0 -39 -54.5 -96.5t-89.5 -57.5q-43 0 -43 47zM1123 1589q0 49 57 102q51 49 86 50q43 0 43 -45q0 -39 -54 -96.5t-91 -57.5q-41 0 -41 47z" />
<glyph unicode="&#xc5;" d="M-96 18q2 61 100 232l160 262q-121 -55 -160 -55q-37 -4 -37 37q0 51 127 104q100 39 201 78q193 293 422 549q242 270 323 272q60 0 60 -74q-6 -76 -72 -268q-92 -268 -110 -330q45 8 55 9q86 0 88 -48q2 -33 -41 -55q-51 -27 -135 -20q-68 -260 -92 -467 q-10 -106 -21 -211q-8 -49 -51 -49q-72 0 -70 151q2 131 103 559l-410 -116q-119 -182 -219 -367q-86 -158 -102 -180q-35 -47 -89 -47q-31 0 -30 34zM459 725l327 84q16 80 88 270q62 164 62 207q-78 -45 -250 -256q-152 -184 -227 -305zM1016 1632q0 59 51 127 q80 102 166 102q78 0 78 -73q0 -57 -63 -127q-92 -100 -166 -101q-66 0 -66 72zM1082 1657q0 -27 26 -27q35 0 74 47q47 57 47 90q0 25 -22 25q-47 0 -90 -66q-35 -41 -35 -69z" />
<glyph unicode="&#xc6;" horiz-adv-x="1392" d="M-170 88q0 61 180 274q244 285 252 297q-37 0 -82 -4t-55 -4q-43 0 -43 43q0 59 86 66q195 12 209 16q188 172 541 494q-57 29 -58 49q-6 63 342 117q260 33 520 65q49 6 80 -12t33 -45q6 -59 -96 -60q-70 0 -494 -47q20 -8 21 -34q0 -39 -82 -156q-133 -199 -168 -256 q344 49 395 49q55 0 55 -37q-4 -27 -31.5 -52.5t-58.5 -25.5q-131 -16 -424 -49q-106 -184 -280 -594q387 121 516 121q86 0 86 -55q0 -47 -217 -86q-262 -47 -320 -80q-80 -47 -137 -47q-66 0 -65 65q0 78 98 301q80 176 172 340q-70 -8 -379 -65q-51 -66 -250 -303 q-139 -166 -225 -291q-35 -51 -76 -49q-45 2 -45 55zM575 809q229 33 293 65q43 76 152 238q96 143 110 174q-2 -2 -266 -201q-182 -139 -289 -276z" />
<glyph unicode="&#xc7;" horiz-adv-x="903" d="M10 213q-2 172 154 481q127 252 350 496q256 276 418 274q61 0 105 -51t44 -121q2 -203 -243 -450q-39 -39 -80 -37q-53 2 -56 51q-2 43 52 84q125 94 192 201q59 94 58 164q-2 70 -60 69q-131 0 -375 -293q-201 -242 -290 -422q-127 -256 -129 -413q-2 -182 137 -187 q98 -2 219 93q133 104 248 294q49 66 84 62q12 0 12 -16q0 -23 -12 -46q-125 -236 -299 -370q-158 -123 -299 -123q-102 0 -166 66.5t-64 193.5zM82 -445q0 18 56.5 74.5t58.5 79.5q4 35 -47.5 49t-51.5 29q0 18 50 71q82 92 98 111h49q-66 -68 -65 -115q51 -27 51 -80 q0 -68 -70 -148.5t-113 -80.5q-16 0 -16 10z" />
<glyph unicode="&#xc8;" horiz-adv-x="854" d="M-29 115q0 18 13 51q178 483 409 840q61 92 123 182q55 82 74 131q-12 0 -29.5 15.5t-17.5 31.5q-2 59 129 86q264 55 516 55q124 0 112 -53q-4 -70 -200 -70q-63 0 -211 -17t-182 -30q29 0 28 -16q0 -23 -84 -139q-119 -162 -192 -291q51 6 188 31q100 18 174 18 q88 0 86 -45q-2 -70 -186 -70q-92 0 -189 -18q-70 -14 -139 -31q-66 -129 -131 -258q-100 -207 -131 -321q76 39 215 77.5t213 38.5q133 0 133 -57q0 -20 -2 -25q-14 -33 -72 -38q-72 -4 -143 -9q-109 -16 -213 -69q-115 -59 -217 -60q-74 0 -74 60zM753 1809q0 51 50 49 q25 -2 38 -31q18 -35 97 -131q65 -77 65 -106q0 -31 -35 -31t-84 63q-55 70 -108 142q-23 20 -23 45z" />
<glyph unicode="&#xc9;" horiz-adv-x="854" d="M-29 115q0 18 13 51q178 483 409 840q61 92 123 182q55 82 74 131q-12 0 -29.5 15.5t-17.5 31.5q-2 59 129 86q264 55 516 55q124 0 112 -53q-4 -70 -200 -70q-63 0 -211 -17t-182 -30q29 0 28 -16q0 -23 -84 -139q-119 -162 -192 -291q51 6 188 31q100 18 174 18 q88 0 86 -45q-2 -70 -186 -70q-92 0 -189 -18q-70 -14 -139 -31q-66 -129 -131 -258q-100 -207 -131 -321q76 39 215 77.5t213 38.5q133 0 133 -57q0 -20 -2 -25q-14 -33 -72 -38q-72 -4 -143 -9q-109 -16 -213 -69q-115 -59 -217 -60q-74 0 -74 60zM934 1600q0 51 92 156.5 t129 105.5q43 0 43 -35q0 -18 -14 -41q-164 -217 -217 -217q-33 0 -33 31z" />
<glyph unicode="&#xca;" horiz-adv-x="854" d="M-29 115q0 18 13 51q178 483 409 840q61 92 123 182q55 82 74 131q-12 0 -29.5 15.5t-17.5 31.5q-2 59 129 86q264 55 516 55q124 0 112 -53q-4 -70 -200 -70q-63 0 -211 -17t-182 -30q29 0 28 -16q0 -23 -84 -139q-119 -162 -192 -291q51 6 188 31q100 18 174 18 q88 0 86 -45q-2 -70 -186 -70q-92 0 -189 -18q-70 -14 -139 -31q-66 -129 -131 -258q-100 -207 -131 -321q76 39 215 77.5t213 38.5q133 0 133 -57q0 -20 -2 -25q-14 -33 -72 -38q-72 -4 -143 -9q-109 -16 -213 -69q-115 -59 -217 -60q-74 0 -74 60zM790 1673q0 41 56 86 q63 51 143 51q33 0 86 -64.5t53 -111.5t-49 -47q-25 0 -64.5 51t-58.5 57q-10 0 -54 -27.5t-71 -27.5q-41 0 -41 33z" />
<glyph unicode="&#xcb;" horiz-adv-x="854" d="M-29 115q0 18 13 51q178 483 409 840q61 92 123 182q55 82 74 131q-12 0 -29.5 15.5t-17.5 31.5q-2 59 129 86q264 55 516 55q124 0 112 -53q-4 -70 -200 -70q-63 0 -211 -17t-182 -30q29 0 28 -16q0 -23 -84 -139q-119 -162 -192 -291q51 6 188 31q100 18 174 18 q88 0 86 -45q-2 -70 -186 -70q-92 0 -189 -18q-70 -14 -139 -31q-66 -129 -131 -258q-100 -207 -131 -321q76 39 215 77.5t213 38.5q133 0 133 -57q0 -20 -2 -25q-14 -33 -72 -38q-72 -4 -143 -9q-109 -16 -213 -69q-115 -59 -217 -60q-74 0 -74 60zM813 1622q0 49 58 105 q51 49 86 49q43 0 43 -47q0 -39 -54.5 -96.5t-89.5 -57.5q-43 0 -43 47zM1041 1620q0 49 57 102q51 49 86 50q43 0 43 -45q0 -39 -54 -96.5t-91 -57.5q-41 0 -41 47z" />
<glyph unicode="&#xcc;" horiz-adv-x="483" d="M-8 96q0 8 8 54q16 211 541 1054q154 248 213 248q57 0 57 -45q0 -41 -57 -121q-160 -221 -320 -485q-193 -317 -270 -520q-14 -39 -45 -187q-12 -61 -70 -61q-57 0 -57 63zM497 1768q0 51 50 49q25 -2 38 -31q18 -35 97 -131q65 -77 65 -106q0 -31 -35 -31t-84 63 q-55 70 -108 142q-23 20 -23 45z" />
<glyph unicode="&#xcd;" horiz-adv-x="483" d="M-8 96q0 8 8 54q16 211 541 1054q154 248 213 248q57 0 57 -45q0 -41 -57 -121q-160 -221 -320 -485q-193 -317 -270 -520q-14 -39 -45 -187q-12 -61 -70 -61q-57 0 -57 63zM770 1528q0 51 92 156.5t129 105.5q43 0 43 -35q0 -18 -14 -41q-164 -217 -217 -217 q-33 0 -33 31z" />
<glyph unicode="&#xce;" horiz-adv-x="483" d="M-8 96q0 8 8 54q16 211 541 1054q154 248 213 248q57 0 57 -45q0 -41 -57 -121q-160 -221 -320 -485q-193 -317 -270 -520q-14 -39 -45 -187q-12 -61 -70 -61q-57 0 -57 63zM626 1550q0 41 56 86q63 51 143 51q33 0 86 -64.5t53 -111.5t-49 -47q-25 0 -64.5 51t-58.5 57 q-10 0 -54 -27.5t-71 -27.5q-41 0 -41 33z" />
<glyph unicode="&#xcf;" horiz-adv-x="483" d="M-8 96q0 8 8 54q16 211 541 1054q154 248 213 248q57 0 57 -45q0 -41 -57 -121q-160 -221 -320 -485q-193 -317 -270 -520q-14 -39 -45 -187q-12 -61 -70 -61q-57 0 -57 63zM608 1540q0 49 58 105q51 49 86 49q43 0 43 -47q0 -39 -54.5 -96.5t-89.5 -57.5q-43 0 -43 47z M836 1538q0 49 57 102q51 49 86 50q43 0 43 -45q0 -39 -54 -96.5t-91 -57.5q-41 0 -41 47z" />
<glyph unicode="&#xd1;" horiz-adv-x="1081" d="M-37 18q-2 80 152 396q109 223 303 534.5t303 435.5q55 61 96 66q20 2 32.5 -11.5t10.5 -35.5q-2 -20 -8 -33q-84 -178 -143 -530q-55 -315 -56 -529q0 -37 2 -63q66 141 197 428q190 416 379 725q70 115 125 115q33 2 33 -43q0 -39 -166 -322q-221 -377 -254 -440 q-63 -123 -135 -312q-80 -215 -113 -284q-57 -121 -133 -123q-63 -2 -64 123q0 295 68 657q41 201 80 399q-393 -616 -525 -958q-59 -154 -67 -172q-37 -74 -80 -74q-37 6 -37 51zM830 1636q0 49 34 80q29 27 70 27q20 0 61 -8q27 -6 101 -54q66 -43 98 -41q18 2 55 35 t54 33q22 0 22 -41q0 -45 -37 -87t-92 -42q-51 0 -143 64.5t-125 64.5q-14 0 -29.5 -35t-38.5 -35q-31 0 -30 39z" />
<glyph unicode="&#xd2;" d="M14 244q2 236 236 583q211 315 457 510q-45 0 -128 -42t-106 -42q-35 0 -35 37q-2 57 123 110.5t262 55.5q150 2 230 -78t80 -225q0 -213 -177 -502q-162 -264 -385 -465q-229 -203 -372 -202q-186 0 -185 260zM154 246q-2 -131 92 -131q82 0 266 182q193 188 332 416 q162 266 162 454q0 180 -162 181q-27 0 -74 -11q23 -4 18 -22q-2 -33 -83 -123q-74 -78 -146 -154q-174 -193 -291 -426q-113 -223 -114 -366zM600 1747q0 51 50 49q25 -2 38 -31q18 -35 97 -131q65 -77 65 -106q0 -31 -35 -31t-84 63q-55 70 -108 142q-23 20 -23 45z" />
<glyph unicode="&#xd3;" d="M14 244q2 236 236 583q211 315 457 510q-45 0 -128 -42t-106 -42q-35 0 -35 37q-2 57 123 110.5t262 55.5q150 2 230 -78t80 -225q0 -213 -177 -502q-162 -264 -385 -465q-229 -203 -372 -202q-186 0 -185 260zM154 246q-2 -131 92 -131q82 0 266 182q193 188 332 416 q162 266 162 454q0 180 -162 181q-27 0 -74 -11q23 -4 18 -22q-2 -33 -83 -123q-74 -78 -146 -154q-174 -193 -291 -426q-113 -223 -114 -366zM862 1528q0 51 92 156.5t129 105.5q43 0 43 -35q0 -18 -14 -41q-164 -217 -217 -217q-33 0 -33 31z" />
<glyph unicode="&#xd4;" d="M14 244q2 236 236 583q211 315 457 510q-45 0 -128 -42t-106 -42q-35 0 -35 37q-2 57 123 110.5t262 55.5q150 2 230 -78t80 -225q0 -213 -177 -502q-162 -264 -385 -465q-229 -203 -372 -202q-186 0 -185 260zM154 246q-2 -131 92 -131q82 0 266 182q193 188 332 416 q162 266 162 454q0 180 -162 181q-27 0 -74 -11q23 -4 18 -22q-2 -33 -83 -123q-74 -78 -146 -154q-174 -193 -291 -426q-113 -223 -114 -366zM719 1591q0 41 56 86q63 51 143 51q33 0 86 -64.5t53 -111.5t-49 -47q-25 0 -64.5 51t-58.5 57q-10 0 -54 -27.5t-71 -27.5 q-41 0 -41 33z" />
<glyph unicode="&#xd5;" d="M14 244q2 236 236 583q211 315 457 510q-45 0 -128 -42t-106 -42q-35 0 -35 37q-2 57 123 110.5t262 55.5q150 2 230 -78t80 -225q0 -213 -177 -502q-162 -264 -385 -465q-229 -203 -372 -202q-186 0 -185 260zM154 246q-2 -131 92 -131q82 0 266 182q193 188 332 416 q162 266 162 454q0 180 -162 181q-27 0 -74 -11q23 -4 18 -22q-2 -33 -83 -123q-74 -78 -146 -154q-174 -193 -291 -426q-113 -223 -114 -366zM646 1595q0 49 34 80q29 27 70 27q20 0 61 -8q27 -6 101 -54q66 -43 98 -41q18 2 55 35t54 33q22 0 22 -41q0 -45 -37 -87 t-92 -42q-51 0 -143 64.5t-125 64.5q-14 0 -29.5 -35t-38.5 -35q-31 0 -30 39z" />
<glyph unicode="&#xd6;" d="M14 244q2 236 236 583q211 315 457 510q-45 0 -128 -42t-106 -42q-35 0 -35 37q-2 57 123 110.5t262 55.5q150 2 230 -78t80 -225q0 -213 -177 -502q-162 -264 -385 -465q-229 -203 -372 -202q-186 0 -185 260zM154 246q-2 -131 92 -131q82 0 266 182q193 188 332 416 q162 266 162 454q0 180 -162 181q-27 0 -74 -11q23 -4 18 -22q-2 -33 -83 -123q-74 -78 -146 -154q-174 -193 -291 -426q-113 -223 -114 -366zM710 1571q0 49 58 105q51 49 86 49q43 0 43 -47q0 -39 -54.5 -96.5t-89.5 -57.5q-43 0 -43 47zM938 1569q0 49 57 102 q51 49 86 50q43 0 43 -45q0 -39 -54 -96.5t-91 -57.5q-41 0 -41 47z" />
<glyph unicode="&#xd8;" horiz-adv-x="983" d="M4 4q-4 35 39 78q-31 63 -29 162q4 236 236 583q211 315 457 510q-45 0 -128 -42t-106 -42q-35 0 -35 37q-2 57 123 110.5t262 55.5q115 2 189 -47q47 57 92 59q29 0 46 -22t17 -45q0 -16 -8 -27q-29 -33 -57 -67q31 -63 31 -154q0 -213 -177 -502q-162 -264 -385 -465 q-229 -203 -372 -202q-33 0 -58 8q-29 -49 -53 -51q-84 0 -84 63zM154 260q133 201 407 553q279 360 340 453q14 16 41 57q-43 25 -98 25q-27 0 -74 -11q23 -4 18 -22q-2 -33 -83 -123q-74 -78 -146 -154q-170 -188 -287 -415q-111 -219 -118 -363zM217 119q16 -4 29 -4 q82 0 266 182q193 188 332 416q162 266 162 454v25q-494 -582 -789 -1073z" />
<glyph unicode="&#xd9;" horiz-adv-x="1128" d="M16 166q0 252 291 719q252 403 414 534q55 45 94 45q37 0 33 -43q0 -41 -27 -67q-174 -174 -409 -553q-268 -428 -269 -611q0 -59 37 -59q86 0 479 516q487 637 586 737q45 45 82 46q47 -1 49 -56q2 -37 -30 -71q-131 -143 -337 -590t-206 -592q0 -10 3 -28.5t3 -29.5 q0 -66 -53 -65q-31 0 -57.5 31.5t-26.5 85.5q0 166 311 792q-33 -37 -295 -385q-240 -319 -346 -425.5t-201 -108.5q-57 0 -91 47t-34 131zM784 1737q0 51 50 49q25 -2 38 -31q18 -35 97 -131q65 -77 65 -106q0 -31 -35 -31t-84 63q-55 70 -108 142q-23 20 -23 45z" />
<glyph unicode="&#xda;" horiz-adv-x="1128" d="M16 166q0 252 291 719q252 403 414 534q55 45 94 45q37 0 33 -43q0 -41 -27 -67q-174 -174 -409 -553q-268 -428 -269 -611q0 -59 37 -59q86 0 479 516q487 637 586 737q45 45 82 46q47 -1 49 -56q2 -37 -30 -71q-131 -143 -337 -590t-206 -592q0 -10 3 -28.5t3 -29.5 q0 -66 -53 -65q-31 0 -57.5 31.5t-26.5 85.5q0 166 311 792q-33 -37 -295 -385q-240 -319 -346 -425.5t-201 -108.5q-57 0 -91 47t-34 131zM1046 1518q0 51 92 156.5t129 105.5q43 0 43 -35q0 -18 -14 -41q-164 -217 -217 -217q-33 0 -33 31z" />
<glyph unicode="&#xdb;" horiz-adv-x="1128" d="M16 166q0 252 291 719q252 403 414 534q55 45 94 45q37 0 33 -43q0 -41 -27 -67q-174 -174 -409 -553q-268 -428 -269 -611q0 -59 37 -59q86 0 479 516q487 637 586 737q45 45 82 46q47 -1 49 -56q2 -37 -30 -71q-131 -143 -337 -590t-206 -592q0 -10 3 -28.5t3 -29.5 q0 -66 -53 -65q-31 0 -57.5 31.5t-26.5 85.5q0 166 311 792q-33 -37 -295 -385q-240 -319 -346 -425.5t-201 -108.5q-57 0 -91 47t-34 131zM934 1581q0 41 56 86q63 51 143 51q33 0 86 -64.5t53 -111.5t-49 -47q-25 0 -64.5 51t-58.5 57q-10 0 -54 -27.5t-71 -27.5 q-41 0 -41 33z" />
<glyph unicode="&#xdc;" horiz-adv-x="1128" d="M16 166q0 252 291 719q252 403 414 534q55 45 94 45q37 0 33 -43q0 -41 -27 -67q-174 -174 -409 -553q-268 -428 -269 -611q0 -59 37 -59q86 0 479 516q487 637 586 737q45 45 82 46q47 -1 49 -56q2 -37 -30 -71q-131 -143 -337 -590t-206 -592q0 -10 3 -28.5t3 -29.5 q0 -66 -53 -65q-31 0 -57.5 31.5t-26.5 85.5q0 166 311 792q-33 -37 -295 -385q-240 -319 -346 -425.5t-201 -108.5q-57 0 -91 47t-34 131zM905 1550q0 49 58 105q51 49 86 49q43 0 43 -47q0 -39 -54.5 -96.5t-89.5 -57.5q-43 0 -43 47zM1133 1548q0 49 57 102q51 49 86 50 q43 0 43 -45q0 -39 -54 -96.5t-91 -57.5q-41 0 -41 47z" />
<glyph unicode="&#xdd;" horiz-adv-x="886" d="M141 588q0 145 119 360q109 197 257.5 351.5t234.5 154.5q63 0 61 -51q-2 -37 -76 -84q-141 -90 -266 -256q-98 -135 -162 -283q-57 -131 -47 -170q10 -23 31 -22q98 0 395 319q266 287 442 545q31 47 72 53q62 5 62 -71q0 -41 -33 -80q-219 -258 -471 -695 q-248 -428 -334 -692q-20 -61 -70 -61q-57 0 -57 67q0 82 131 342q127 252 277 478q-211 -211 -224 -222q-133 -115 -241 -114q-100 0 -101 131zM924 1507q0 51 92 156.5t129 105.5q43 0 43 -35q0 -18 -14 -41q-164 -217 -217 -217q-33 0 -33 31z" />
<glyph unicode="&#xdf;" horiz-adv-x="606" d="M-37 154q0 31 21 77l360 859q68 160 162 290q129 178 233 176q47 0 78 -34.5t31 -81.5q0 -111 -117 -305q-88 -150 -135 -195q-88 -86 -98 -98q-43 -53 -43 -115q-2 -27 -4 -53q-2 -35 8 -64q29 18 63 21q25 2 42.5 -8.5t15.5 -26.5q0 -43 -88 -68q37 -76 36 -159 q0 -102 -71 -199q-76 -102 -164 -100q-113 4 -113 127q0 86 51 168q20 33 95 120q51 59 51 93q0 14 -11.5 63t-11.5 88q0 104 142 229q72 61 155.5 210t85.5 223q0 41 -30 45q-78 12 -301 -482q-172 -383 -324 -804q-27 -74 -72 -72q-49 2 -47 76zM279 240q0 -43 34 -43 q63 0 84 82q13 46 13 167q-43 -8 -87 -81.5t-44 -124.5z" />
<glyph unicode="&#xe0;" horiz-adv-x="565" d="M6 205q-6 160 133 360q147 211 293 211q105 0 107 -86q0 -31 -15 -63q12 -8 13 -29q0 -41 -64.5 -183.5t-64.5 -189.5q0 -70 50 -94.5t50 -64.5q0 -43 -59 -41q-51 2 -91 38q-45 43 -43 115q0 18 13 70q-102 -174 -213 -176q-104 -2 -109 133zM121 252q0 -43 26 -55 q57 -18 168 182q124 221 144 231q-14 53 -58 54q-74 0 -176 -157t-104 -255zM211 1102q0 51 50 49q25 -2 38 -31q18 -35 97 -131q65 -77 65 -106q0 -31 -35 -31t-84 63q-55 70 -108 142q-23 20 -23 45z" />
<glyph unicode="&#xe1;" horiz-adv-x="565" d="M6 205q-6 160 133 360q147 211 293 211q105 0 107 -86q0 -31 -15 -63q12 -8 13 -29q0 -41 -64.5 -183.5t-64.5 -189.5q0 -70 50 -94.5t50 -64.5q0 -43 -59 -41q-51 2 -91 38q-45 43 -43 115q0 18 13 70q-102 -174 -213 -176q-104 -2 -109 133zM121 252q0 -43 26 -55 q57 -18 168 182q124 221 144 231q-14 53 -58 54q-74 0 -176 -157t-104 -255zM401 852q0 51 92 156.5t129 105.5q43 0 43 -35q0 -18 -14 -41q-164 -217 -217 -217q-33 0 -33 31z" />
<glyph unicode="&#xe2;" horiz-adv-x="565" d="M6 205q-6 160 133 360q147 211 293 211q105 0 107 -86q0 -31 -15 -63q12 -8 13 -29q0 -41 -64.5 -183.5t-64.5 -189.5q0 -70 50 -94.5t50 -64.5q0 -43 -59 -41q-51 2 -91 38q-45 43 -43 115q0 18 13 70q-102 -174 -213 -176q-104 -2 -109 133zM121 252q0 -43 26 -55 q57 -18 168 182q124 221 144 231q-14 53 -58 54q-74 0 -176 -157t-104 -255zM309 895q0 41 56 86q63 51 143 51q33 0 86 -64.5t53 -111.5t-49 -47q-25 0 -64.5 51t-58.5 57q-10 0 -54 -27.5t-71 -27.5q-41 0 -41 33z" />
<glyph unicode="&#xe3;" horiz-adv-x="565" d="M6 205q-6 160 133 360q147 211 293 211q105 0 107 -86q0 -31 -15 -63q12 -8 13 -29q0 -41 -64.5 -183.5t-64.5 -189.5q0 -70 50 -94.5t50 -64.5q0 -43 -59 -41q-51 2 -91 38q-45 43 -43 115q0 18 13 70q-102 -174 -213 -176q-104 -2 -109 133zM121 252q0 -43 26 -55 q57 -18 168 182q124 221 144 231q-14 53 -58 54q-74 0 -176 -157t-104 -255zM195 960q0 49 34 80q29 27 70 27q20 0 61 -8q27 -6 101 -54q66 -43 98 -41q18 2 55 35t54 33q22 0 22 -41q0 -45 -37 -87t-92 -42q-51 0 -143 64.5t-125 64.5q-14 0 -29.5 -35t-38.5 -35 q-31 0 -30 39z" />
<glyph unicode="&#xe4;" horiz-adv-x="565" d="M6 205q-6 160 133 360q147 211 293 211q105 0 107 -86q0 -31 -15 -63q12 -8 13 -29q0 -41 -64.5 -183.5t-64.5 -189.5q0 -70 50 -94.5t50 -64.5q0 -43 -59 -41q-51 2 -91 38q-45 43 -43 115q0 18 13 70q-102 -174 -213 -176q-104 -2 -109 133zM121 252q0 -43 26 -55 q57 -18 168 182q124 221 144 231q-14 53 -58 54q-74 0 -176 -157t-104 -255zM239 885q0 49 58 105q51 49 86 49q43 0 43 -47q0 -39 -54.5 -96.5t-89.5 -57.5q-43 0 -43 47zM467 883q0 49 57 102q51 49 86 50q43 0 43 -45q0 -39 -54 -96.5t-91 -57.5q-41 0 -41 47z" />
<glyph unicode="&#xe5;" horiz-adv-x="565" d="M6 205q-6 160 133 360q147 211 293 211q105 0 107 -86q0 -31 -15 -63q12 -8 13 -29q0 -41 -64.5 -183.5t-64.5 -189.5q0 -70 50 -94.5t50 -64.5q0 -43 -59 -41q-51 2 -91 38q-45 43 -43 115q0 18 13 70q-102 -174 -213 -176q-104 -2 -109 133zM121 252q0 -43 26 -55 q57 -18 168 182q124 221 144 231q-14 53 -58 54q-74 0 -176 -157t-104 -255zM422 915q0 59 51 127q80 102 166 102q78 0 78 -73q0 -57 -63 -127q-92 -100 -166 -101q-66 0 -66 72zM488 940q0 -27 26 -27q35 0 74 47q47 57 47 90q0 25 -22 25q-47 0 -90 -66q-35 -41 -35 -69z " />
<glyph unicode="&#xe6;" horiz-adv-x="837" d="M-49 231q8 137 117 228q96 82 208 80q57 0 101 -27q27 41 26 100q0 82 -59 82q-25 0 -88 -27.5t-90 -27.5q-39 2 -39 35q0 45 96 92q90 43 154 43q131 0 131 -115q106 109 178 109q88 0 90 -131q2 -127 -86 -211q-106 -102 -213 -103q-14 0 -51 4q-10 -47 -10 -79 q-2 -100 69 -103q57 -2 131 61.5t138 172.5q29 49 71 53q31 0 27 -31q0 -78 -135 -217q-147 -154 -273 -153q-76 0 -110 59q-14 23 -39 106q-37 -80 -100.5 -125t-122.5 -43q-131 6 -121 168zM51 244q0 -68 60 -70q51 -2 106 59q66 70 111 197q-33 27 -70 27q-76 0 -145 -82 q-61 -74 -62 -131zM475 461q16 -4 23 -4q72 0 129 78q49 70 51 129q0 35 -23 34q-6 0 -16 -4q-31 -16 -88 -92q-66 -84 -76 -141z" />
<glyph unicode="&#xe7;" horiz-adv-x="595" d="M-31 -322q0 18 56.5 74.5t58.5 79.5q4 35 -47.5 49t-51.5 29q0 18 50 71q82 92 98 111h49q-66 -68 -65 -115q51 -27 51 -80q0 -68 -70 -148.5t-113 -80.5q-16 0 -16 10zM10 209q0 193 164 389q152 184 268 184q66 0 66 -106q0 -74 -51 -145.5t-95 -73.5q-12 0 -22 9 t-10 21q0 23 44 77t44 75q0 27 -19 27q-51 0 -170 -160q-121 -166 -120 -258q0 -80 63 -82q57 -2 133 57q84 63 154 172q20 45 57 45q27 1 31 -28q0 -80 -141.5 -211t-258.5 -135q-137 -4 -137 143z" />
<glyph unicode="&#xe8;" horiz-adv-x="595" d="M-10 248q0 86 55 196q47 94 102 150q160 160 250 160q39 0 64.5 -26t25.5 -60q2 -66 -71 -162q-55 -72 -121 -127q-57 -57 -180 -98q0 -100 84 -99q66 0 161 62.5t164 150.5q33 41 51 41q21 1 21 -30q0 -74 -152 -197q-162 -131 -292 -131q-63 0 -112.5 49t-49.5 121z M131 395q70 0 161 80t91 135q0 27 -25 29q-33 0 -79 -45q-94 -92 -148 -199zM159 1102q0 51 50 49q25 -2 38 -31q18 -35 97 -131q65 -77 65 -106q0 -31 -35 -31t-84 63q-55 70 -108 142q-23 20 -23 45z" />
<glyph unicode="&#xe9;" horiz-adv-x="595" d="M-10 248q0 86 55 196q47 94 102 150q160 160 250 160q39 0 64.5 -26t25.5 -60q2 -66 -71 -162q-55 -72 -121 -127q-57 -57 -180 -98q0 -100 84 -99q66 0 161 62.5t164 150.5q33 41 51 41q21 1 21 -30q0 -74 -152 -197q-162 -131 -292 -131q-63 0 -112.5 49t-49.5 121z M131 395q70 0 161 80t91 135q0 27 -25 29q-33 0 -79 -45q-94 -92 -148 -199zM381 852q0 51 92 156.5t129 105.5q43 0 43 -35q0 -18 -14 -41q-164 -217 -217 -217q-33 0 -33 31z" />
<glyph unicode="&#xea;" horiz-adv-x="595" d="M-10 248q0 86 55 196q47 94 102 150q160 160 250 160q39 0 64.5 -26t25.5 -60q2 -66 -71 -162q-55 -72 -121 -127q-57 -57 -180 -98q0 -100 84 -99q66 0 161 62.5t164 150.5q33 41 51 41q21 1 21 -30q0 -74 -152 -197q-162 -131 -292 -131q-63 0 -112.5 49t-49.5 121z M131 395q70 0 161 80t91 135q0 27 -25 29q-33 0 -79 -45q-94 -92 -148 -199zM237 875q0 41 56 86q63 51 143 51q33 0 86 -64.5t53 -111.5t-49 -47q-25 0 -64.5 51t-58.5 57q-10 0 -54 -27.5t-71 -27.5q-41 0 -41 33z" />
<glyph unicode="&#xeb;" horiz-adv-x="595" d="M-10 248q0 86 55 196q47 94 102 150q160 160 250 160q39 0 64.5 -26t25.5 -60q2 -66 -71 -162q-55 -72 -121 -127q-57 -57 -180 -98q0 -100 84 -99q66 0 161 62.5t164 150.5q33 41 51 41q21 1 21 -30q0 -74 -152 -197q-162 -131 -292 -131q-63 0 -112.5 49t-49.5 121z M131 395q70 0 161 80t91 135q0 27 -25 29q-33 0 -79 -45q-94 -92 -148 -199zM198 854q0 49 58 105q51 49 86 49q43 0 43 -47q0 -39 -54.5 -96.5t-89.5 -57.5q-43 0 -43 47zM426 852q0 49 57 102q51 49 86 50q43 0 43 -45q0 -39 -54 -96.5t-91 -57.5q-41 0 -41 47z" />
<glyph unicode="&#xec;" horiz-adv-x="290" d="M-33 131q0 102 96 291q82 158 183 289q29 37 59 37q35 -4 35 -39t-27 -66q-57 -70 -149 -262q-84 -180 -98 -250q-14 -76 -58 -72q-16 0 -28.5 22.5t-12.5 49.5zM67 1092q0 51 50 49q25 -2 38 -31q18 -35 97 -131q65 -77 65 -106q0 -31 -35 -31t-84 63q-55 70 -108 142 q-23 20 -23 45z" />
<glyph unicode="&#xed;" horiz-adv-x="290" d="M-33 131q0 102 96 291q82 158 183 289q29 37 59 37q35 -4 35 -39t-27 -66q-57 -70 -149 -262q-84 -180 -98 -250q-14 -76 -58 -72q-16 0 -28.5 22.5t-12.5 49.5zM309 852q0 51 92 156.5t129 105.5q43 0 43 -35q0 -18 -14 -41q-164 -217 -217 -217q-33 0 -33 31z" />
<glyph unicode="&#xee;" horiz-adv-x="290" d="M-33 131q0 102 96 291q82 158 183 289q29 37 59 37q35 -4 35 -39t-27 -66q-57 -70 -149 -262q-84 -180 -98 -250q-14 -76 -58 -72q-16 0 -28.5 22.5t-12.5 49.5zM176 885q0 41 56 86q63 51 143 51q33 0 86 -64.5t53 -111.5t-49 -47q-25 0 -64.5 51t-58.5 57 q-10 0 -54 -27.5t-71 -27.5q-41 0 -41 33z" />
<glyph unicode="&#xef;" horiz-adv-x="290" d="M-33 131q0 102 96 291q82 158 183 289q29 37 59 37q35 -4 35 -39t-27 -66q-57 -70 -149 -262q-84 -180 -98 -250q-14 -76 -58 -72q-16 0 -28.5 22.5t-12.5 49.5zM137 874q0 49 58 105q51 49 86 49q43 0 43 -47q0 -39 -54.5 -96.5t-89.5 -57.5q-43 0 -43 47zM365 872 q0 49 57 102q51 49 86 50q43 0 43 -45q0 -39 -54 -96.5t-91 -57.5q-41 0 -41 47z" />
<glyph unicode="&#xf1;" horiz-adv-x="548" d="M-31 119q4 66 146.5 329t179.5 263q49 0 47 -39q0 -31 -41 -99q-27 -49 -55 -96q82 78 162 154q88 80 151 80q51 0 53 -29t-63 -117q-84 -113 -105 -151q-86 -172 -86 -271q0 -43 19.5 -77.5t19.5 -61.5q0 -41 -37 -41q-39 0 -73.5 49t-34.5 119q2 143 92 330 q-88 -61 -158 -164q-47 -74 -94 -150q-45 -66 -92 -65q-33 0 -31 37zM215 909q0 49 34 80q29 27 70 27q20 0 61 -8q27 -6 101 -54q66 -43 98 -41q18 2 55 35t54 33q22 0 22 -41q0 -45 -37 -87t-92 -42q-51 0 -143 64.5t-125 64.5q-14 0 -29.5 -35t-38.5 -35q-31 0 -30 39z " />
<glyph unicode="&#xf2;" horiz-adv-x="499" d="M2 205q2 176 137 375q147 215 305 213q76 -3 76 -107q0 -164 -137 -387q-143 -233 -268 -233q-113 0 -113 139zM106 268q0 -78 50 -78q41 0 82 46q49 53 75 143q-33 0 -30 18q2 20 43 72q55 72 67 92q23 39 27 74q0 41 -37 41q-57 0 -166 -150q-111 -156 -111 -258z M190 1102q0 51 50 49q25 -2 38 -31q18 -35 97 -131q65 -77 65 -106q0 -31 -35 -31t-84 63q-55 70 -108 142q-23 20 -23 45z" />
<glyph unicode="&#xf3;" horiz-adv-x="499" d="M2 205q2 176 137 375q147 215 305 213q76 -3 76 -107q0 -164 -137 -387q-143 -233 -268 -233q-113 0 -113 139zM106 268q0 -78 50 -78q41 0 82 46q49 53 75 143q-33 0 -30 18q2 20 43 72q55 72 67 92q23 39 27 74q0 41 -37 41q-57 0 -166 -150q-111 -156 -111 -258z M401 872q0 51 92 156.5t129 105.5q43 0 43 -35q0 -18 -14 -41q-164 -217 -217 -217q-33 0 -33 31z" />
<glyph unicode="&#xf4;" horiz-adv-x="499" d="M2 205q2 176 137 375q147 215 305 213q76 -3 76 -107q0 -164 -137 -387q-143 -233 -268 -233q-113 0 -113 139zM106 268q0 -78 50 -78q41 0 82 46q49 53 75 143q-33 0 -30 18q2 20 43 72q55 72 67 92q23 39 27 74q0 41 -37 41q-57 0 -166 -150q-111 -156 -111 -258z M288 905q0 41 56 86q63 51 143 51q33 0 86 -64.5t53 -111.5t-49 -47q-25 0 -64.5 51t-58.5 57q-10 0 -54 -27.5t-71 -27.5q-41 0 -41 33z" />
<glyph unicode="&#xf5;" horiz-adv-x="499" d="M2 205q2 176 137 375q147 215 305 213q76 -3 76 -107q0 -164 -137 -387q-143 -233 -268 -233q-113 0 -113 139zM106 268q0 -78 50 -78q41 0 82 46q49 53 75 143q-33 0 -30 18q2 20 43 72q55 72 67 92q23 39 27 74q0 41 -37 41q-57 0 -166 -150q-111 -156 -111 -258z M195 971q0 49 34 80q29 27 70 27q20 0 61 -8q27 -6 101 -54q66 -43 98 -41q18 2 55 35t54 33q22 0 22 -41q0 -45 -37 -87t-92 -42q-51 0 -143 64.5t-125 64.5q-14 0 -29.5 -35t-38.5 -35q-31 0 -30 39z" />
<glyph unicode="&#xf6;" horiz-adv-x="499" d="M2 205q2 176 137 375q147 215 305 213q76 -3 76 -107q0 -164 -137 -387q-143 -233 -268 -233q-113 0 -113 139zM106 268q0 -78 50 -78q41 0 82 46q49 53 75 143q-33 0 -30 18q2 20 43 72q55 72 67 92q23 39 27 74q0 41 -37 41q-57 0 -166 -150q-111 -156 -111 -258z M239 895q0 49 58 105q51 49 86 49q43 0 43 -47q0 -39 -54.5 -96.5t-89.5 -57.5q-43 0 -43 47zM467 893q0 49 57 102q51 49 86 50q43 0 43 -45q0 -39 -54 -96.5t-91 -57.5q-41 0 -41 47z" />
<glyph unicode="&#xf8;" horiz-adv-x="507" d="M-23 80q-2 27 31 70q-6 27 -6 55q2 176 137 375q147 215 305 213q35 0 54 -29q31 27 57 27q18 0 22.5 -10.5t2.5 -30.5q-5 -25 -5 -27q0 -10 -57 -76q-20 -170 -149 -371q-137 -211 -254 -210q-25 0 -43 6q-18 -31 -25 -39q-14 -14 -29 -17q-41 0 -41 64zM106 264 q135 164 230 307q39 60 70 99q-8 6 -23 6q-57 0 -166 -150q-111 -156 -111 -258v-4zM162 190q96 9 149 183q-39 -47 -149 -183z" />
<glyph unicode="&#xf9;" horiz-adv-x="565" d="M-14 207q0 115 108.5 292t184.5 177q49 0 49 -23q0 -20 -88 -135q-96 -129 -125 -221q-12 -41 -13 -66q0 -33 15 -32q35 0 114 104q86 115 146 258q41 100 90 103q47 2 47 -66q0 -35 -22 -70q-96 -152 -97 -256q0 -90 64 -122q55 -29 55 -66q0 -33 -70 -33t-111.5 45 t-39.5 119q0 12 2 33q-115 -166 -203 -166q-43 0 -74.5 34t-31.5 91zM170 1061q0 51 50 49q25 -2 38 -31q18 -35 97 -131q65 -77 65 -106q0 -31 -35 -31t-84 63q-55 70 -108 142q-23 20 -23 45z" />
<glyph unicode="&#xfa;" horiz-adv-x="565" d="M-14 207q0 115 108.5 292t184.5 177q49 0 49 -23q0 -20 -88 -135q-96 -129 -125 -221q-12 -41 -13 -66q0 -33 15 -32q35 0 114 104q86 115 146 258q41 100 90 103q47 2 47 -66q0 -35 -22 -70q-96 -152 -97 -256q0 -90 64 -122q55 -29 55 -66q0 -33 -70 -33t-111.5 45 t-39.5 119q0 12 2 33q-115 -166 -203 -166q-43 0 -74.5 34t-31.5 91zM371 852q0 51 92 156.5t129 105.5q43 0 43 -35q0 -18 -14 -41q-164 -217 -217 -217q-33 0 -33 31z" />
<glyph unicode="&#xfb;" horiz-adv-x="565" d="M-14 207q0 115 108.5 292t184.5 177q49 0 49 -23q0 -20 -88 -135q-96 -129 -125 -221q-12 -41 -13 -66q0 -33 15 -32q35 0 114 104q86 115 146 258q41 100 90 103q47 2 47 -66q0 -35 -22 -70q-96 -152 -97 -256q0 -90 64 -122q55 -29 55 -66q0 -33 -70 -33t-111.5 45 t-39.5 119q0 12 2 33q-115 -166 -203 -166q-43 0 -74.5 34t-31.5 91zM227 864q0 41 56 86q63 51 143 51q33 0 86 -64.5t53 -111.5t-49 -47q-25 0 -64.5 51t-58.5 57q-10 0 -54 -27.5t-71 -27.5q-41 0 -41 33z" />
<glyph unicode="&#xfc;" horiz-adv-x="565" d="M-14 207q0 115 108.5 292t184.5 177q49 0 49 -23q0 -20 -88 -135q-96 -129 -125 -221q-12 -41 -13 -66q0 -33 15 -32q35 0 114 104q86 115 146 258q41 100 90 103q47 2 47 -66q0 -35 -22 -70q-96 -152 -97 -256q0 -90 64 -122q55 -29 55 -66q0 -33 -70 -33t-111.5 45 t-39.5 119q0 12 2 33q-115 -166 -203 -166q-43 0 -74.5 34t-31.5 91zM198 813q0 49 58 105q51 49 86 49q43 0 43 -47q0 -39 -54.5 -96.5t-89.5 -57.5q-43 0 -43 47zM426 811q0 49 57 102q51 49 86 50q43 0 43 -45q0 -39 -54 -96.5t-91 -57.5q-41 0 -41 47z" />
<glyph unicode="&#xfd;" horiz-adv-x="724" d="M-262 -395q0 123 164 266q154 133 360 211q47 84 92 168q35 66 56 129q-78 -117 -181.5 -199t-160.5 -82q-68 0 -68 99q0 106 150 299q141 182 188 182q35 0 35 -45q0 -23 -126 -171.5t-126 -203.5q0 -23 18 -22q49 0 254 235.5t238 235.5q55 0 55 -56q0 -18 -100 -194 q-113 -195 -142 -275q160 115 228 232q29 51 57 51q33 0 33 -43q0 -53 -135 -184q-141 -139 -267 -187q-113 -319 -256 -489q-119 -139 -219 -140q-70 0 -110 56q-37 49 -37 127zM-147 -379q0 -82 61 -82q39 0 86 47q61 61 125 191q45 96 88 190q-154 -78 -266 -198 q-94 -100 -94 -148zM463 832q0 51 92 156.5t129 105.5q43 0 43 -35q0 -18 -14 -41q-164 -217 -217 -217q-33 0 -33 31z" />
<glyph unicode="&#xff;" horiz-adv-x="724" d="M-262 -395q0 123 164 266q154 133 360 211q47 84 92 168q35 66 56 129q-78 -117 -181.5 -199t-160.5 -82q-68 0 -68 99q0 106 150 299q141 182 188 182q35 0 35 -45q0 -23 -126 -171.5t-126 -203.5q0 -23 18 -22q49 0 254 235.5t238 235.5q55 0 55 -56q0 -18 -100 -194 q-113 -195 -142 -275q160 115 228 232q29 51 57 51q33 0 33 -43q0 -53 -135 -184q-141 -139 -267 -187q-113 -319 -256 -489q-119 -139 -219 -140q-70 0 -110 56q-37 49 -37 127zM-147 -379q0 -82 61 -82q39 0 86 47q61 61 125 191q45 96 88 190q-154 -78 -266 -198 q-94 -100 -94 -148zM331 823q0 49 58 105q51 49 86 49q43 0 43 -47q0 -39 -54.5 -96.5t-89.5 -57.5q-43 0 -43 47zM559 821q0 49 57 102q51 49 86 50q43 0 43 -45q0 -39 -54 -96.5t-91 -57.5q-41 0 -41 47z" />
<glyph unicode="&#x152;" horiz-adv-x="1691" d="M14 244q2 236 236 583q211 315 457 510q-45 0 -128 -42t-106 -42q-35 0 -35 37q-2 57 123 110.5t262 55.5q297 4 310 -285q66 96 84 148q-12 0 -29 15.5t-17 31.5q-2 59 129 86q264 55 515 55q124 0 112 -53q-4 -70 -201 -70q-63 0 -210.5 -17t-182.5 -30q29 0 29 -16 q0 -23 -84 -139q-119 -162 -193 -291q51 6 189 31q100 18 174 18q90 0 88 -45q-2 -70 -188 -70q-92 0 -322 -47q-68 -131 -133 -260q-102 -207 -135 -321q76 39 215 77.5t213 38.5q133 0 133 -57q0 -20 -2 -25q-14 -33 -72 -38q-72 -4 -143 -9q-109 -16 -213 -69 q-115 -59 -217 -60q-74 0 -74 60q0 18 12 51q8 18 35 92q-262 -274 -446 -274q-186 0 -185 260zM154 246q-2 -131 92 -131q82 0 266 182q193 188 332 416q162 266 162 454q0 180 -162 181q-27 0 -74 -11q23 -4 18 -22q-2 -33 -83 -123q-74 -78 -146 -154 q-174 -193 -291 -426q-113 -223 -114 -366z" />
<glyph unicode="&#x153;" horiz-adv-x="899" d="M2 205q2 176 137 375q147 215 305 213q76 -2 76 -107v-22q104 90 176 90q37 0 62.5 -26t25.5 -60q4 -113 -190 -289q-68 -61 -182 -98q0 -100 84 -99q68 0 162 62.5t165 150.5q33 41 49 41q21 1 21 -30q0 -74 -152 -197q-162 -131 -290 -131q-109 0 -152 104 q-100 -117 -184 -116q-113 0 -113 139zM106 268q0 -78 50 -78q41 0 82 46q49 53 75 143q-33 0 -30 18q2 20 43 72q55 72 67 92q23 39 27 74q0 41 -37 41q-57 0 -166 -150q-111 -156 -111 -258zM436 395q70 4 158 83t88 132q0 25 -27 29q-33 0 -77 -45q-63 -63 -115 -141 q-16 -37 -27 -58z" />
<glyph unicode="&#x178;" horiz-adv-x="886" d="M141 588q0 145 119 360q109 197 257.5 351.5t234.5 154.5q63 0 61 -51q-2 -37 -76 -84q-141 -90 -266 -256q-98 -135 -162 -283q-57 -131 -47 -170q10 -23 31 -22q98 0 395 319q266 287 442 545q31 47 72 53q62 5 62 -71q0 -41 -33 -80q-219 -258 -471 -695 q-248 -428 -334 -692q-20 -61 -70 -61q-57 0 -57 67q0 82 131 342q127 252 277 478q-211 -211 -224 -222q-133 -115 -241 -114q-100 0 -101 131z" />
<glyph unicode="&#x2c6;" horiz-adv-x="638" d="M227 936q0 41 56 86q63 51 143 51q33 0 86 -64.5t53 -111.5t-49 -47q-25 0 -64.5 51t-58.5 57q-10 0 -54 -27.5t-71 -27.5q-41 0 -41 33z" />
<glyph unicode="&#x2dc;" horiz-adv-x="837" d="M195 991q0 49 34 80q29 27 70 27q20 0 61 -8q27 -6 101 -54q66 -43 98 -41q18 2 55 35t54 33q22 0 22 -41q0 -45 -37 -87t-92 -42q-51 0 -143 64.5t-125 64.5q-14 0 -29.5 -35t-38.5 -35q-31 0 -30 39z" />
<glyph unicode="&#x2000;" horiz-adv-x="931" />
<glyph unicode="&#x2001;" horiz-adv-x="1862" />
<glyph unicode="&#x2002;" horiz-adv-x="931" />
<glyph unicode="&#x2003;" horiz-adv-x="1862" />
<glyph unicode="&#x2004;" horiz-adv-x="620" />
<glyph unicode="&#x2005;" horiz-adv-x="465" />
<glyph unicode="&#x2006;" horiz-adv-x="310" />
<glyph unicode="&#x2007;" horiz-adv-x="310" />
<glyph unicode="&#x2008;" horiz-adv-x="232" />
<glyph unicode="&#x2009;" horiz-adv-x="372" />
<glyph unicode="&#x200a;" horiz-adv-x="103" />
<glyph unicode="&#x2010;" horiz-adv-x="694" d="M84 414v114h541v-114h-541z" />
<glyph unicode="&#x2011;" horiz-adv-x="694" d="M84 414v114h541v-114h-541z" />
<glyph unicode="&#x2012;" horiz-adv-x="694" d="M84 414v114h541v-114h-541z" />
<glyph unicode="&#x2013;" horiz-adv-x="1050" d="M0 395v133h1051v-133h-1051z" />
<glyph unicode="&#x2014;" horiz-adv-x="2082" d="M0 414v131h2066v-131h-2066z" />
<glyph unicode="&#x2018;" horiz-adv-x="327" d="M244 1104q0 98 107.5 250.5t174.5 154.5q47 0 47 -45q-4 -35 -32 -63q-143 -141 -164 -295q-10 -80 -64 -82q-27 0 -48 23.5t-21 56.5z" />
<glyph unicode="&#x2019;" horiz-adv-x="327" d="M362 1063q-4 27 31 57q72 63 146 232q59 133 106 133q62 0 62 -84q0 -98 -112 -238.5t-185 -140.5q-47 0 -48 41z" />
<glyph unicode="&#x201c;" horiz-adv-x="475" d="M203 1104q0 98 106.5 250.5t175.5 154.5q45 0 45 -45q-4 -29 -91 -134t-103 -224q-10 -80 -66 -82q-25 0 -46 23.5t-21 56.5zM440 1114q0 98 106.5 251t176.5 155q45 0 45 -45q-4 -29 -91 -133.5t-104 -225.5q-10 -80 -65 -82q-25 0 -46.5 23.5t-21.5 56.5z" />
<glyph unicode="&#x201d;" horiz-adv-x="491" d="M293 1061q-4 27 33 57q74 63 145 230q59 135 107 135q59 0 59 -84q0 -98 -110.5 -238.5t-184.5 -140.5q-49 0 -49 41zM545 1061q-4 27 33 57q72 63 145 232q59 133 106 133q60 0 60 -84q0 -98 -110.5 -238.5t-184.5 -140.5q-49 0 -49 41z" />
<glyph unicode="&#x202f;" horiz-adv-x="372" />
<glyph unicode="&#x205f;" horiz-adv-x="465" />
<glyph unicode="&#x20ac;" horiz-adv-x="1095" d="M25 494q0 25 43 41q37 14 88 14h104q23 45 41 78h-49q-117 0 -117 30q0 55 131 56h86q125 195 275 340q178 170 293 168q55 0 93 -44t38 -104q-35 -33 -58 -33t-23.5 46.5t-39.5 46.5q-78 0 -217 -142q-111 -115 -226 -278h277q98 0 98 -45q0 -41 -112 -41h-320 q-25 -43 -43 -78h266q98 0 99 -45q0 -39 -113 -39h-291q-61 -143 -61 -238q-2 -143 104 -143q88 0 135 18q72 31 222 148q43 55 75 53q18 0 19 -20q0 -25 -11 -41q-74 -109 -219 -184.5t-260 -75.5q-88 0 -141 56t-55 163q0 104 67 264h-82q-117 0 -116 29z" />
<glyph unicode="&#x2122;" horiz-adv-x="1718" d="M123 647q0 72 123 297q98 174 198 350q-51 -8 -116 -26q-53 -16 -68 -17q-66 0 -63 60q0 29 44 55.5t99 34.5q225 63 504 63q92 0 92 -61q0 -55 -305 -78q-16 23 -20.5 28t-4.5 1v-15q0 -23 -31 -67q-45 -72 -49 -80q-74 -135 -147 -270q-94 -178 -121 -285 q-18 -76 -70 -76q-23 0 -44 25.5t-21 60.5zM623 580q0 20 53 135q135 291 302 508t226 217q55 0 62 -60q0 10 -9 -39q-12 -37 -69 -149q-66 -131 -90 -188q49 72 141 204q172 256 252 256q57 0 57 -63q0 -45 -63 -160q-43 -76 -86 -151q-86 -186 -92 -201q-61 -143 -66 -203 q-2 -23 2 -37q0 -106 -74 -96q-63 10 -63 94q0 131 68 252q12 29 36 78q-82 -115 -128 -187.5t-99 -72.5q-70 6 -65 78q8 147 90 321q33 59 84 162l47 -37q-57 -47 -191 -280q-106 -186 -172 -326q-33 -70 -35 -72q-25 -37 -63 -37q-55 0 -55 54z" />
<glyph unicode="&#x25fc;" horiz-adv-x="727" d="M0 0v727h727v-727h-727z" />
</font>
</defs>
</svg>
