<?xml version="1.0" encoding="UTF-8" standalone="no"?>
<svg width="140px" height="20px" viewBox="0 0 140 20" version="1.1" xmlns="http://www.w3.org/2000/svg" xmlns:xlink="http://www.w3.org/1999/xlink" xmlns:sketch="http://www.bohemiancoding.com/sketch/ns">
    <!-- Generator: Sketch 3.5.2 (25235) - http://www.bohemiancoding.com/sketch -->
    <title>Glyph</title>
    <desc>Created with Sketch.</desc>
    <defs></defs>
    <g id="20160113---Universe" stroke="none" stroke-width="1" fill="none" fill-rule="evenodd" sketch:type="MSPage">
        <g id="Desktop-HD" sketch:type="MSArtboardGroup" transform="translate(-462.000000, -551.000000)">
            <g id="Glyph" sketch:type="MSLayerGroup" transform="translate(462.000000, 551.000000)">
                <g transform="translate(120.000000, 0.000000)" id="Oval" stroke="#979690" sketch:type="MSShapeGroup">
                    <circle cx="10" cy="10" r="9"></circle>
                </g>
                <g transform="translate(100.000000, 0.000000)" sketch:type="MSShapeGroup">
                    <rect id="Bounds" x="0" y="0" width="20" height="20"></rect>
                    <polygon id="Square" stroke="#979690" points="10 1 19 10 10 19 1 10 "></polygon>
                </g>
                <g transform="translate(20.000000, 0.000000)" sketch:type="MSShapeGroup">
                    <rect id="Bounds" x="0" y="0" width="20" height="20"></rect>
                    <polygon id="Square" stroke="#979690" points="10 1 19 10 10 19 1 10 "></polygon>
                    <polygon id="Square" stroke="#979690" points="10 6 14 10 10 14 6 10 "></polygon>
                </g>
                <g transform="translate(40.000000, 0.000000)" sketch:type="MSShapeGroup">
                    <rect id="Bounds" x="0" y="0" width="20" height="20"></rect>
                    <circle id="Oval" stroke="#979690" cx="10" cy="10" r="9"></circle>
                    <circle id="Oval" stroke="#979690" cx="10" cy="10" r="4"></circle>
                </g>
                <g sketch:type="MSShapeGroup">
                    <rect id="Bounds" x="0" y="0" width="20" height="20"></rect>
                    <polygon id="Triangle" stroke="#979690" points="10 1 19 19 1 19 "></polygon>
                </g>
                <g transform="translate(60.000000, 0.000000)" sketch:type="MSShapeGroup">
                    <rect id="Bounds" x="0" y="0" width="20" height="20"></rect>
                    <path d="M10,1 L19,19 L1,19 L10,1 Z M10,3 L17.5,18 L2.5,18 L10,3 Z" id="Triangle" fill="#979690"></path>
                    <path d="M10,19 L19,1 L1,1 L10,19 Z M10,17 L17.5,2 L2.5,2 L10,17 Z" id="Triangle" fill="#979690"></path>
                </g>
                <g transform="translate(80.000000, 0.000000)" sketch:type="MSShapeGroup">
                    <rect id="Bounds" x="0" y="0" width="20" height="20"></rect>
                    <path d="M10,19 C14.9705627,19 19,14.9705627 19,10 C19,5.02943725 14.9705627,1 10,1 C5.02943725,1 1,5.02943725 1,10 C1,14.9705627 5.02943725,19 10,19 Z M10,18 C14.418278,18 18,14.418278 18,10 C18,5.581722 14.418278,2 10,2 C5.581722,2 2,5.581722 2,10 C2,14.418278 5.581722,18 10,18 Z" id="Path" fill="#979690"></path>
                    <rect id="Line" fill="#979690" x="1" y="9.5" width="18" height="1"></rect>
                    <rect id="Line" fill="#979690" x="9.5" y="1" width="1" height="18"></rect>
                </g>
            </g>
        </g>
    </g>
</svg>