<?xml version="1.0" encoding="UTF-8" standalone="no"?>
<svg width="140px" height="20px" viewBox="0 0 140 20" version="1.1" xmlns="http://www.w3.org/2000/svg" xmlns:xlink="http://www.w3.org/1999/xlink" xmlns:sketch="http://www.bohemiancoding.com/sketch/ns">
    <!-- Generator: Sketch 3.5.2 (25235) - http://www.bohemiancoding.com/sketch -->
    <title>Contact</title>
    <desc>Created with Sketch.</desc>
    <defs></defs>
    <g id="20160113---Universe" stroke="none" stroke-width="1" fill="none" fill-rule="evenodd" sketch:type="MSPage">
        <g id="Desktop-HD" sketch:type="MSArtboardGroup" transform="translate(-462.000000, -571.000000)">
            <g id="Contact" sketch:type="MSLayerGroup" transform="translate(462.000000, 571.000000)">
                <g id="Mail" sketch:type="MSShapeGroup">
                    <rect id="Bounds" x="0" y="0" width="20" height="20"></rect>
                    <path d="M1.59286356,5.08573667 C2.08068757,5.34833344 8.84154454,8.97923885 9.09303145,9.11457719 C9.34451836,9.24991553 9.67074436,9.31455473 9.99899033,9.31455473 C10.3272363,9.31455473 10.6524523,9.24991553 10.9049492,9.11457719 C11.1564361,8.97923885 17.9162831,5.34833344 18.4041071,5.08573667 C18.8929411,4.82313989 19.3545054,4 18.4576364,4 L1.53933422,4 C0.642465232,4 1.10402956,4.82313989 1.59286356,5.08573667 L1.59286356,5.08573667 Z M18.6111546,7.08551211 C18.0566714,7.37537855 11.244305,10.9365948 10.9049492,11.1143526 C10.5655934,11.2921104 10.3272363,11.3153402 9.99899033,11.3153402 C9.66973437,11.3153402 9.43238729,11.2921104 9.09303145,11.1143526 C8.75367562,10.9376048 1.94130928,7.37537855 1.38682609,7.08551211 C0.995960891,6.88149461 1.00000084,7.12086167 1.00000084,7.30467942 L1.00000084,14.6402193 C1.00000084,15.0593642 1.55852398,15.5986976 1.99180866,15.5986976 L18.008192,15.5986976 C18.4414766,15.5986976 18.9999998,15.0593642 18.9999998,14.6402193 L18.9999998,7.30467942 C18.9999998,7.12086167 19.0020198,6.88149461 18.6111546,7.08551211 L18.6111546,7.08551211 Z" fill="#979690"></path>
                </g>
                <g id="Behance" transform="translate(100.000000, 0.000000)" sketch:type="MSShapeGroup">
                    <rect id="Bounds" x="0" y="0" width="20" height="20"></rect>
                    <path d="M12.5019128,6.83554524 L17.2686239,6.83554524 L17.2686239,5.50023202 L12.5019128,5.50023202 L12.5019128,6.83554524 L12.5019128,6.83554524 Z M13.6311492,9.74914153 C13.327409,10.0513225 13.1358515,10.4606961 13.0575352,10.9772622 L16.7648596,10.9772622 C16.7257014,10.4259861 16.5330856,10.0094664 16.1923039,9.72259861 C15.8472889,9.43777262 15.4228992,9.29587007 14.9149016,9.29587007 C14.3645708,9.29587007 13.9348895,9.44696056 13.6311492,9.74914153 L13.6311492,9.74914153 L13.6311492,9.74914153 Z M16.8484675,7.95647332 C17.4231398,8.20352668 17.8962126,8.59554524 18.2687442,9.13048724 C18.6084676,9.60213457 18.8264832,10.1493271 18.9259661,10.7710441 C18.9841742,11.134478 19.0074574,11.6612529 18.9979324,12.3462645 L13.0046188,12.3462645 C13.040602,13.1415313 13.324234,13.6999536 13.8660981,14.0194896 C14.1941799,14.2185615 14.5889364,14.3186079 15.0524842,14.3186079 C15.5403736,14.3186079 15.9393634,14.197123 16.2452203,13.955174 C16.4134945,13.8234803 16.5616605,13.6417633 16.6886599,13.4090023 L18.8846913,13.4090023 C18.8264832,13.8786079 18.5597845,14.3574014 18.08777,14.8433411 C17.3511735,15.6141067 16.3193033,16 14.9932179,16 C13.897848,16 12.9315942,15.6753596 12.0965731,15.0240371 C11.2573187,14.3737355 10.8403373,13.3140603 10.8403373,11.8480742 C10.8403373,10.4729466 11.2181605,9.41837587 11.9727487,8.68436195 C12.7294534,7.95238979 13.7084072,7.58385151 14.9138432,7.58385151 C15.6303315,7.58385151 16.2748535,7.70839907 16.8484675,7.95647332 L16.8484675,7.95647332 L16.8484675,7.95647332 Z M3.21719796,11.0058469 L3.21719796,13.8673782 L5.91805199,13.8673782 C6.40064973,13.8673782 6.77741463,13.8040835 7.04517171,13.6785151 C7.5330611,13.4437123 7.77647662,12.9986079 7.77647662,12.3391183 C7.77647662,11.7796752 7.54152772,11.3968445 7.06845494,11.1875638 C6.80387284,11.0711833 6.43239958,11.0099304 5.95615181,11.0058469 L3.21719796,11.0058469 L3.21719796,11.0058469 Z M3.21719796,6.86310905 L3.21719796,9.23053364 L5.9222853,9.23053364 C6.40382471,9.23053364 6.79646454,9.14171694 7.09914646,8.96408353 C7.39971172,8.78645012 7.55105268,8.47201856 7.55105268,8.02283063 C7.55105268,7.52157773 7.35208694,7.19183295 6.95415547,7.03053364 C6.60914042,6.91925754 6.17099247,6.86310905 5.63865329,6.86310905 L3.21719796,6.86310905 L3.21719796,6.86310905 Z M9.25813636,6.14338747 C9.59785977,6.59972158 9.76825064,7.14487239 9.76825064,7.78088167 C9.76825064,8.43526682 9.59785977,8.96306265 9.25390304,9.3612065 C9.06128728,9.5837587 8.7787136,9.78793503 8.40512368,9.97169374 C8.97238769,10.1717865 9.39995236,10.487239 9.69099266,10.9190719 C9.97885798,11.349884 10.123849,11.8746172 10.123849,12.4912297 C10.123849,13.127239 9.95874975,13.6979118 9.62749296,14.2022274 C9.41794394,14.5360557 9.1554785,14.817819 8.84009665,15.0464965 C8.48555664,15.3088631 8.06751693,15.4875174 7.58386086,15.585522 C7.10020479,15.6825058 6.57739057,15.7294664 6.01224321,15.7294664 L1,15.7294664 L1,5 L6.37524985,5 C7.73202683,5.01939675 8.69193067,5.40018561 9.25813636,6.14338747 L9.25813636,6.14338747 L9.25813636,6.14338747 Z" fill="#979690"></path>
                </g>
                <g id="Dribbble" transform="translate(80.000000, 0.000000)" sketch:type="MSShapeGroup">
                    <rect id="Bounds" x="0" y="0" width="20" height="20"></rect>
                    <path d="M14.2954666,16.3744488 C14.2171459,15.9109295 13.8075498,13.6547122 12.7989063,10.8852372 C15.2808255,10.4883885 17.430411,11.1688518 17.5891692,11.2207067 C17.2473099,13.3626315 16.0206386,15.209301 14.2954666,16.3744488 L14.2954666,16.3744488 L14.2954666,16.3744488 Z M10.0005292,17.6866953 C8.13988358,17.6866953 6.43376257,17.0252807 5.1033692,15.9246869 C5.20497442,16.0072315 5.2758864,16.0590864 5.2758864,16.0590864 C5.2758864,16.0590864 6.74916211,12.8461991 11.307638,11.2577459 C11.3245722,11.2513963 11.3425648,11.2471633 11.359499,11.241872 C12.4411713,14.0515609 12.8867525,16.4051385 13.0010584,17.0771356 C12.0792027,17.468693 11.0642089,17.6866953 10.0005292,17.6866953 L10.0005292,17.6866953 L10.0005292,17.6866953 Z M2.31345916,9.99947087 C2.31345916,9.9179846 2.31769271,9.83755659 2.31980949,9.75712858 C2.45634151,9.76030337 6.25383666,9.84602269 10.2111484,8.66182609 C10.431293,9.09253924 10.6419122,9.5317185 10.8345387,9.96878123 C10.7329335,9.99629608 10.6323867,10.0269857 10.5318398,10.0608501 C6.38401835,11.4006114 4.27994355,15.1320477 4.27994355,15.1320477 C4.27994355,15.1320477 4.28311872,15.1352225 4.28311872,15.1362808 C3.05856412,13.774296 2.31345916,11.9741901 2.31345916,9.99947087 L2.31345916,9.99947087 L2.31345916,9.99947087 Z M6.72058564,3.04985596 C6.82324925,3.18637192 8.24466396,5.11346934 9.57505733,7.47762949 C5.88445934,8.45863954 2.6807197,8.4194838 2.47856765,8.41630901 C2.97706827,6.03521665 4.57629212,4.06155565 6.72058564,3.04985596 L6.72058564,3.04985596 L6.72058564,3.04985596 Z M8.15893456,2.53765653 C8.15893456,2.5387148 8.15787617,2.53977306 8.15787617,2.53977306 C8.15787617,2.53977306 8.14835068,2.54188959 8.13459164,2.54400611 C8.14305874,2.54188959 8.15046745,2.54083132 8.15893456,2.53765653 L8.15893456,2.53765653 L8.15893456,2.53765653 Z M15.0765567,4.2329943 C15.0575057,4.26156741 13.9631328,5.92833206 11.0610337,7.01516844 C9.74757453,4.60126992 8.30393367,2.68369687 8.18856941,2.53130696 C8.76962427,2.39055794 9.37608044,2.31436298 10.0005292,2.31436298 C11.9458458,2.31436298 13.7228788,3.04033159 15.0765567,4.2329943 L15.0765567,4.2329943 L15.0765567,4.2329943 Z M17.6844241,9.92327591 C17.5732933,9.89893586 14.9717763,9.33911459 12.331099,9.67140925 C12.2760628,9.54018461 12.222085,9.4079017 12.1649321,9.27561879 C12.0051155,8.89887707 11.8325983,8.52636839 11.6537308,8.1602093 C14.6891868,6.92098301 15.9211501,5.13992592 15.9359675,5.11876066 C17.0134062,6.42783232 17.6664315,8.09988829 17.6844241,9.92327591 L17.6844241,9.92327591 L17.6844241,9.92327591 Z M18.8179573,8.18878241 C18.6994179,7.61097066 18.5216087,7.04056676 18.2919386,6.49661944 C18.0675604,5.96325475 17.7870877,5.4489388 17.4621626,4.96848727 C17.1414712,4.4922688 16.7710355,4.04356517 16.3646146,3.63719207 C15.9571353,3.22976071 15.5094373,2.86042683 15.0321044,2.5387148 C14.5515964,2.21276971 14.03722,1.93444647 13.5037926,1.70797813 C12.9597813,1.47939326 12.3903687,1.30160503 11.812489,1.18413781 C11.2197919,1.06243753 10.6101605,1 10.0005292,1 C9.38983948,1 8.78020815,1.06243753 8.18751102,1.18413781 C7.60963133,1.30160503 7.04021873,1.47939326 6.49620744,1.70797813 C5.96278003,1.93444647 5.4484036,2.21276971 4.96683718,2.5387148 C4.49056271,2.86042683 4.0428647,3.22976071 3.63538543,3.63719207 C3.22896454,4.04356517 2.85958723,4.4922688 2.53783736,4.96848727 C2.21291233,5.4489388 1.93243958,5.96325475 1.70806139,6.49661944 C1.47733286,7.04056676 1.30058211,7.61097066 1.18204269,8.18878241 C1.06138649,8.78035158 1,9.38991122 1,9.99947087 C1,10.611147 1.06138649,11.2207067 1.18204269,11.8133341 C1.30058211,12.3911459 1.47733286,12.9604915 1.70806139,13.5033806 C1.93243958,14.0367453 2.21291233,14.5531777 2.53783736,15.0336293 C2.85958723,15.5098477 3.22896454,15.9564348 3.63538543,16.3649245 C4.0428647,16.7712975 4.49056271,17.1395732 4.96683718,17.4623435 C5.4484036,17.7872303 5.96278003,18.0666118 6.49620744,18.2920219 C7.04021873,18.5227233 7.60963133,18.698395 8.18751102,18.8158622 C8.78020815,18.9386207 9.38983948,19 10.0005292,19 C10.6101605,19 11.2197919,18.9386207 11.812489,18.8158622 C12.3903687,18.698395 12.9597813,18.5227233 13.5037926,18.2920219 C14.03722,18.0666118 14.5515964,17.7872303 15.0321044,17.4623435 C15.5094373,17.1395732 15.9571353,16.7712975 16.3646146,16.3649245 C16.7710355,15.9564348 17.1414712,15.5098477 17.4621626,15.0336293 C17.7870877,14.5531777 18.0675604,14.0367453 18.2919386,13.5033806 C18.5216087,12.9604915 18.6994179,12.3911459 18.8179573,11.8133341 C18.9386135,11.2207067 19,10.611147 19,9.99947087 C19,9.38991122 18.9386135,8.78035158 18.8179573,8.18878241 L18.8179573,8.18878241 L18.8179573,8.18878241 Z" fill="#979690"></path>
                </g>
                <g id="Twitter" transform="translate(20.000000, 0.000000)" sketch:type="MSShapeGroup">
                    <rect id="Bounds" x="0" y="0" width="20" height="20"></rect>
                    <path d="M19,4.77573131 C18.338616,5.07692308 17.6265188,5.28060672 16.8795563,5.3716143 C17.6423666,4.9035753 18.2276809,4.16143012 18.5034337,3.27735645 C17.7892235,3.71072589 17,4.02600217 16.1568938,4.19501625 C15.4849445,3.45937161 14.5245642,3 13.461701,3 C11.4236661,3 9.77020602,4.69555796 9.77020602,6.78656555 C9.77020602,7.08342362 9.80190174,7.3716143 9.86529319,7.64897075 C6.79609086,7.4907909 4.07554147,5.98483207 2.25303751,3.69122427 C1.93502377,4.2524377 1.75330164,4.9035753 1.75330164,5.59696641 C1.75330164,6.91007584 2.40517697,8.06933911 3.39619651,8.74864572 C2.79186476,8.73022752 2.22134179,8.55796316 1.72266244,8.27627302 L1.72266244,8.32286024 C1.72266244,10.1581798 2.9957739,11.6890574 4.68621236,12.035753 C4.37665082,12.1245937 4.05018489,12.1690141 3.71315372,12.1690141 C3.47543582,12.1690141 3.24300053,12.1462622 3.01796091,12.1018418 C3.4881141,13.6056338 4.85103011,14.7009751 6.46751189,14.7302275 C5.20390914,15.7464789 3.61067089,16.3521127 1.88114105,16.3521127 C1.58320127,16.3521127 1.28843106,16.3347779 1,16.3001083 C2.63444268,17.3726977 4.57633386,18 6.66085578,18 C13.4543053,18 17.1679873,12.2307692 17.1679873,7.22643554 C17.1679873,7.06175515 17.1648177,6.89707476 17.1584786,6.73564464 C17.8800845,6.20151679 18.5066033,5.53521127 19,4.77573131" fill="#979690"></path>
                </g>
                <g id="Github" transform="translate(60.000000, 0.000000)" sketch:type="MSShapeGroup">
                    <rect id="Bounds" x="0" y="0" width="20" height="20"></rect>
                    <path d="M9.9994375,1 C5.02975,1 1,5.13122676 1,10.2285019 C1,14.3049379 3.5785,17.7636796 7.1554375,18.9840727 C7.6054375,19.0688543 7.7696875,18.7839421 7.7696875,18.5394021 C7.7696875,18.3202389 7.7618125,17.7400331 7.7573125,16.970078 C5.253625,17.5277908 4.7254375,15.7329593 4.7254375,15.7329593 C4.3165,14.667134 3.7264375,14.3833753 3.7264375,14.3833753 C2.909125,13.8106672 3.7883125,13.8222021 3.7883125,13.8222021 C4.691125,13.8873743 5.1664375,14.7732551 5.1664375,14.7732551 C5.9696875,16.1833974 7.273,15.7762152 7.786,15.5397496 C7.8675625,14.943395 8.1004375,14.5367895 8.3575,14.3060914 C6.3589375,14.0730863 4.258,13.2817917 4.258,9.74576611 C4.258,8.73819202 4.6084375,7.9145997 5.1844375,7.26922168 C5.091625,7.03563983 4.7828125,6.09785193 5.2721875,4.82728198 C5.2721875,4.82728198 6.0281875,4.57928149 7.7471875,5.77314431 C8.4655,5.56839972 9.235,5.4663158 10.0005625,5.46227858 C10.765,5.4663158 11.5350625,5.56839972 12.2539375,5.77314431 C13.9718125,4.57928149 14.726125,4.82728198 14.726125,4.82728198 C15.2171875,6.09785193 14.908375,7.03563983 14.8155625,7.26922168 C15.3926875,7.9145997 15.740875,8.73819202 15.740875,9.74576611 C15.740875,13.2904429 13.6365625,14.0707793 11.6318125,14.2991704 C11.9546875,14.5840826 12.2426875,15.1469861 12.2426875,16.0080668 C12.2426875,17.2417251 12.2314375,18.2366108 12.2314375,18.5394021 C12.2314375,18.7862491 12.3934375,19.0734682 12.8501875,18.9829192 C16.42375,17.7602191 19,14.3037844 19,10.2285019 C19,5.13122676 14.97025,1 9.9994375,1" fill="#979690"></path>
                </g>
                <g id="RSS" transform="translate(120.000000, 0.000000)" sketch:type="MSShapeGroup">
                    <rect id="Bounds" x="0" y="0" width="20" height="20"></rect>
                    <path d="M1.00019286,16.4285714 C1.00019286,15.0085 2.15153766,13.8571429 3.57159388,13.8571429 C4.99165009,13.8571429 6.1429949,15.0085 6.1429949,16.4285714 C6.1429949,17.8486429 4.99165009,19 3.57159388,19 C2.15153766,19 1.00019286,17.8486429 1.00019286,16.4285714 Z M19,19 L15.5716796,19 C15.5716796,10.9649286 9.03517819,4.42835714 1.00019286,4.42835714 L1.00019286,1 C10.9251579,1 19,9.07492857 19,19 Z M13.0000857,19 L9.5717653,19 C9.5717653,14.2737143 5.72623508,10.4287857 1,10.4287857 L1,6.99978571 C7.61685768,6.99978571 13.0000857,12.3830714 13.0000857,19 Z" fill="#979690"></path>
                </g>
                <g id="SinaWeibo" transform="translate(40.000000, 0.000000)" sketch:type="MSShapeGroup">
                    <rect id="Bounds" x="0" y="0" width="20" height="20"></rect>
                    <path d="M14.2403187,9.84022738 C13.9918287,9.76531493 13.8219053,9.71232807 13.9516317,9.38070345 C14.2330102,8.65989951 14.2631579,8.03776075 13.9580267,7.59468101 C13.3852205,6.76242197 11.8193676,6.80718672 10.0251231,7.57275542 C10.0251231,7.57184185 9.46145257,7.82307263 9.60579607,7.36811653 C9.88169314,6.4645993 9.83966909,5.70907984 9.41029285,5.2714815 C8.43734457,4.28026189 5.84829721,5.30985129 3.62741714,7.56910115 C1.96563975,9.26102624 1,11.0552708 1,12.6065066 C1,15.5737705 4.7374004,17.5580368 8.39440694,17.5580368 C13.1878902,17.5580368 16.3771507,14.542354 16.3771507,12.2913262 C16.3771507,10.9310257 15.2507232,10.1599756 14.2403187,9.84022738 L14.2403187,9.84022738 Z M8.40354261,16.2278841 C5.48561133,16.5165711 2.96782216,15.1918997 2.77780033,13.265188 C2.58869208,11.3393899 4.80043648,9.54240471 7.71836776,9.25189058 C10.636299,8.96137644 13.1550018,10.2887885 13.34411,12.213673 C13.5341319,14.1403847 11.323301,15.9373699 8.40354261,16.2278841 L8.40354261,16.2278841 Z M19,7.42475765 C18.9981729,4.42917322 16.5699132,2 13.5734152,2 C13.2235193,2 12.9403137,2.28411917 12.9403137,2.63310156 C12.9403137,2.98208395 13.2244328,3.26528955 13.5734152,3.26528955 C15.8719484,3.26528955 17.7337969,5.12805157 17.7337969,7.42658478 C17.7337969,7.77648074 18.0179161,8.05877278 18.3668984,8.05877278 C18.7158808,8.05877278 19,7.77556717 19,7.42658478 C19,7.42749835 19,7.42567122 19,7.42475765 L19,7.42475765 Z M16.484038,7.33157387 C16.195351,5.91828656 15.0817134,4.80464904 13.6684261,4.51596204 C13.3258387,4.44561742 12.9914734,4.66578694 12.9211288,5.00837436 C12.8507841,5.35096178 13.0709537,5.68532711 13.4135411,5.75567173 C14.3325889,5.94386642 15.0561336,6.66741105 15.2443283,7.58645891 C15.3146729,7.92813277 15.6490382,8.14830229 15.9916256,8.07887124 C16.3332995,8.00761305 16.553469,7.6741613 16.484038,7.33157387 L16.484038,7.33157387 Z M6.90803431,11.1374918 C5.73227427,11.3741055 4.93929858,12.3598437 5.13662894,13.3391869 C5.33304573,14.3185302 6.44576968,14.9205705 7.62152972,14.6848703 C8.79637619,14.4491702 9.59026544,13.463432 9.39293509,12.4840887 C9.19560473,11.5047455 8.08288078,10.9017916 6.90803431,11.1374918 L6.90803431,11.1374918 Z" fill="#979690"></path>
                </g>
            </g>
        </g>
    </g>
</svg>